<svg width="100" height="101" viewBox="0 0 100 101" fill="none" xmlns="http://www.w3.org/2000/svg">
<path d="M76.4358 31.9399L81.7964 36.5188C74.3138 45.6766 53.7646 67.4544 11.1025 90.5723C11.1025 90.5723 58.0084 82.1962 92.6295 45.7883L97.6551 50.0322L100 27.4727L76.4358 31.9399Z" fill="#F8F3E3"/>
<path d="M73.6436 13.6251C77.406 13.6251 80.4561 10.575 80.4561 6.81253C80.4561 3.05007 77.406 0 73.6436 0C69.8811 0 66.8311 3.05007 66.8311 6.81253C66.8311 10.575 69.8811 13.6251 73.6436 13.6251Z" fill="#F8F3E3"/>
<path d="M2.9497 55.8388C3.17306 55.8388 3.39642 55.8388 3.5081 55.7271L13.8944 50.2547C14.4528 49.9197 14.7879 49.1379 14.4528 48.5795C14.1178 47.9094 13.336 47.6861 12.7776 48.0211L2.3913 53.4935C1.83289 53.8285 1.49785 54.6103 1.83289 55.1687C2.05626 55.6154 2.50298 55.8388 2.9497 55.8388Z" fill="#F8F3E3"/>
<path d="M18.2497 52.4889C17.9147 51.9305 17.1329 51.7071 16.5745 52.0422L0.604141 60.865C0.0457374 61.2 -0.177624 61.9818 0.157419 62.5402C0.38078 62.9869 0.827503 63.2103 1.27423 63.2103C1.49759 63.2103 1.72095 63.2103 1.83263 63.0986L17.803 54.2758C18.3614 53.8291 18.5847 53.0473 18.2497 52.4889Z" fill="#F8F3E3"/>
<path d="M26.626 55.0591L12.1075 60.5315C11.4374 60.7549 11.1024 61.5366 11.3257 62.095C11.5491 62.6534 11.9958 62.8768 12.5542 62.8768C12.6659 62.8768 12.8893 62.8768 13.001 62.7651L27.4078 57.4044C28.0779 57.1811 28.4129 56.3993 28.1895 55.8409C27.9662 55.1708 27.2961 54.8358 26.626 55.0591Z" fill="#F8F3E3"/>
<path d="M82.0195 100.513H92.7409V49.4746C89.2788 53.0484 85.705 56.2871 82.0195 59.1908V100.513Z" fill="#F8F3E3"/>
<path d="M65.6025 100.513H76.3239V63.6582C72.7501 66.3385 69.1763 68.7955 65.6025 71.0291V100.513Z" fill="#F8F3E3"/>
<path d="M49.2969 100.512H60.0182V74.3789C56.3328 76.5008 52.759 78.3994 49.2969 80.0746V100.512Z" fill="#F8F3E3"/>
<path d="M32.9912 86.8888V100.514H43.7126V82.5332C42.4841 83.0916 41.2556 83.65 40.0271 84.0967C37.5701 85.2135 35.1131 86.107 32.9912 86.8888Z" fill="#F8F3E3"/>
<path d="M16.5742 100.511H27.2956V88.8965C22.94 90.3483 19.2546 91.3535 16.5742 92.0235V100.511Z" fill="#F8F3E3"/>
<path d="M27.2955 23.1171C28.4123 26.3558 32.4328 26.6909 35.6715 27.361C36.1182 27.4727 36.565 27.5843 37.0117 27.696L42.2607 23.0054C42.149 22.5587 42.0373 22.0003 42.0373 21.4419L42.484 11.3906L19.7012 15.1878C19.8129 15.4111 25.3969 17.5331 27.2955 23.1171Z" fill="#F8F3E3"/>
<path d="M22.4932 50.4807C23.0516 50.4807 23.7217 50.2574 24.1684 49.9223L47.398 34.6221C47.398 34.6221 46.0579 41.7696 44.7177 42.7748C43.7126 43.5565 37.0117 44.3383 33.3263 46.7953C32.2095 47.577 31.7627 49.1406 32.4328 50.2574C32.8795 51.1508 33.773 51.4859 34.6664 51.4859C35.1132 51.4859 35.6716 51.3742 36.1183 51.2625C38.5753 50.7041 44.4943 49.4756 47.2864 48.6938C49.0733 48.2471 50.6368 47.1303 51.6419 45.5668L58.2311 35.2921L69.6225 25.2409L93.0755 12.621C94.3039 11.9509 94.7507 10.2757 94.0806 9.04717C93.6339 8.15373 92.7404 7.707 91.847 7.707C91.4002 7.707 91.0652 7.81868 90.6185 8.04205L76.1 14.8546C75.0949 15.3013 73.9781 15.5247 72.8613 15.5247C72.5262 15.5247 72.3028 15.5247 71.9678 15.5247L63.4801 20.4386L66.8305 15.8597L68.8407 14.7429L66.4954 12.5093L65.7137 14.7429L61.2465 18.205L64.7086 10.6107L63.0333 8.93549C63.0333 8.93549 62.5866 8.04205 58.5661 7.59532L49.7433 6.47852C49.52 6.47852 49.4083 6.47852 49.1849 6.47852C47.063 6.47852 45.2761 8.15373 45.1644 10.2757L44.606 21.6671C44.4943 23.0073 45.6111 24.1241 46.9513 24.2358C48.1798 24.2358 49.1849 23.3423 49.2966 22.1138L50.4134 13.291L55.3274 13.8494L53.3171 16.1947L52.8704 16.7531L52.312 17.3115L51.6419 22.4489C51.3069 24.9058 49.1849 26.6927 46.728 26.6927V26.8044C45.4995 26.8044 44.3827 26.3577 43.4892 25.4642L20.5947 45.9018C19.5895 46.9069 19.5895 48.6938 20.5947 49.699C21.0414 50.2574 21.8232 50.4807 22.4932 50.4807Z" fill="#F8F3E3"/>
</svg>
