<svg width="100" height="93" viewBox="0 0 100 93" fill="none" xmlns="http://www.w3.org/2000/svg">
<path fill-rule="evenodd" clip-rule="evenodd" d="M97.34 86.6461H44.5987C43.8645 86.6461 43.2016 86.944 42.7191 87.4265C42.2367 87.909 41.9388 88.576 41.9388 89.3061V89.5452C41.9388 90.2794 42.2367 90.9423 42.7191 91.4248C43.2016 91.9073 43.8687 92.2052 44.5987 92.2052H97.34C98.0743 92.2052 98.7372 91.9073 99.2196 91.4248C99.7021 90.9423 100 90.2752 100 89.5452V89.3061C100 88.5718 99.7021 87.9089 99.2196 87.4265C98.7413 86.9482 98.0743 86.6461 97.34 86.6461ZM28.6222 55.9852L29.7466 38.9722L11.6725 38.968L12.7969 55.981H10.2964C9.56222 55.981 8.8993 56.2788 8.41684 56.7613C7.93437 57.2438 7.63647 57.9109 7.63647 58.6409V58.8801C7.63647 59.6101 7.93435 60.2772 8.41684 60.7597C8.89932 61.2421 9.56639 61.54 10.2964 61.54H63.0377C63.7678 61.54 64.4349 61.2421 64.9173 60.7597C65.3998 60.2772 65.6977 59.6101 65.6977 58.8801V58.6409C65.6977 57.9067 65.3998 57.2438 64.9173 56.7613C64.4348 56.2789 63.7678 55.981 63.0377 55.981H55.6116V55.8341C55.6116 53.2371 53.4928 51.1226 50.9001 51.1226H47.4556C44.8585 51.1226 42.7441 53.2414 42.7441 55.8341V55.981L28.6222 55.9852ZM19.6564 55.9852V46.2852C19.6564 45.702 20.1263 45.2321 20.7094 45.2321C21.2926 45.2321 21.7625 45.702 21.7625 46.2852V55.9852H19.6564ZM75.4405 71.3151H22.6991C21.9649 71.3151 21.302 71.613 20.8196 72.0955C20.3371 72.5779 20.0392 73.245 20.0392 73.9751V74.2142C20.0392 74.9484 20.3371 75.6113 20.8196 76.0938C21.302 76.5762 21.9691 76.8742 22.6991 76.8742L34.4761 76.8783H75.4415C76.1757 76.8783 76.8387 76.5805 77.3211 76.098C77.8036 75.6155 78.1015 74.9484 78.1015 74.2184V73.9792C78.1015 73.245 77.8036 72.5821 77.3211 72.0997C76.8386 71.613 76.1705 71.3151 75.4405 71.3151ZM81.9812 63.6499H29.2399C28.5057 63.6499 27.8428 63.9478 27.3603 64.4303C26.8779 64.9128 26.58 65.5798 26.58 66.3099V66.549C26.58 67.279 26.8778 67.9461 27.3603 68.4286C27.8428 68.9111 28.5099 69.209 29.2399 69.209H81.978C82.708 69.209 83.3751 68.9111 83.8576 68.4286C84.3401 67.9461 84.6379 67.279 84.6379 66.549V66.3099C84.6379 65.5757 84.3401 64.9127 83.8576 64.4303C83.3793 63.9478 82.7154 63.6499 81.9812 63.6499ZM44.5988 84.5434H87.2129C87.9471 84.5434 88.61 84.2456 89.0925 83.7631C89.575 83.2806 89.8729 82.6135 89.8729 81.8835V81.6443C89.8729 80.9101 89.575 80.2472 89.0925 79.7647C88.61 79.2823 87.943 78.9844 87.2129 78.9844L75.4402 78.9802H34.4748C33.7406 78.9802 33.0777 79.2781 32.5952 79.7606C32.1128 80.243 31.8149 80.9101 31.8149 81.6401V81.8793C31.8149 82.6093 32.1128 83.2764 32.5952 83.7589C33.0777 84.2414 33.7448 84.5392 34.4748 84.5392L44.5988 84.5434ZM71.9915 8.09244L73.0152 11.26C73.1075 11.5453 73.3592 11.7299 73.6613 11.7299L76.9884 11.7215C77.2862 11.7215 77.538 11.9061 77.6345 12.1872C77.7268 12.4725 77.6303 12.7704 77.3869 12.9424L74.6934 14.8933C74.4501 15.0695 74.3536 15.3674 74.4459 15.6527L75.478 18.8161C75.5703 19.0972 75.4738 19.3993 75.2346 19.5755C74.9913 19.7517 74.6808 19.7517 74.4375 19.5755L71.7482 17.6162C71.5048 17.44 71.1902 17.44 70.951 17.6162L68.2617 19.5755C68.0226 19.7517 67.7079 19.7517 67.4646 19.5755C67.2212 19.3993 67.1247 19.1014 67.2212 18.8161L68.2533 15.6527C68.3456 15.3674 68.2491 15.0695 68.0058 14.8933L65.3123 12.9424C65.0689 12.7662 64.9724 12.4683 65.0647 12.1872C65.157 11.9061 65.413 11.7215 65.7108 11.7215L69.0379 11.7299C69.3358 11.7299 69.5917 11.5453 69.684 11.26L70.7035 8.09244C70.7959 7.80715 71.0476 7.62254 71.3455 7.62254C71.6434 7.62254 71.8992 7.80715 71.9915 8.09244ZM53.9592 8.09244L54.9829 11.26C55.0752 11.5453 55.3269 11.7299 55.629 11.7299L58.9561 11.7215C59.254 11.7215 59.5057 11.9061 59.6022 12.1872C59.6945 12.4725 59.598 12.7704 59.3547 12.9424L56.6612 14.8933C56.4178 15.0695 56.3213 15.3674 56.4136 15.6527L57.4457 18.8161C57.538 19.0972 57.4415 19.3993 57.2024 19.5755C56.959 19.7517 56.6486 19.7517 56.4052 19.5755L53.7159 17.6162C53.4726 17.44 53.1579 17.44 52.9188 17.6162L50.2294 19.5755C49.9903 19.7517 49.6756 19.7517 49.4323 19.5755C49.189 19.3993 49.0925 19.1014 49.189 18.8161L50.2211 15.6527C50.3134 15.3674 50.2169 15.0695 49.9735 14.8933L47.28 12.9424C47.0367 12.7662 46.9402 12.4683 47.0325 12.1872C47.1248 11.9061 47.3807 11.7215 47.6786 11.7215L51.0057 11.7299C51.3036 11.7299 51.5595 11.5453 51.6518 11.26L52.6713 8.09244C52.7636 7.80715 53.0153 7.62254 53.3132 7.62254C53.6153 7.62254 53.8711 7.80715 53.9592 8.09244ZM40.8901 27.1655H57.4628V37.5745C57.4628 41.0274 55.2895 43.9895 52.2393 45.16L51.824 49.0786C51.5219 49.0366 51.2114 49.0156 50.8968 49.0156H47.4523C47.1376 49.0156 46.8271 49.0366 46.5251 49.0786L46.1097 45.16C43.0596 43.9895 40.8863 41.0274 40.8863 37.5745L40.8901 27.1655ZM38.784 28.9905H36.6024C36.0948 28.9905 35.6836 29.4016 35.6836 29.9093V33.3665C35.6836 35.4768 36.9674 37.2977 38.7966 38.0906C38.7882 37.9185 38.784 37.7465 38.784 37.5745L38.784 28.9905ZM59.5691 28.9905H61.7507C62.2584 28.9905 62.6695 29.4016 62.6695 29.9093V33.3665C62.6695 35.4768 61.3857 37.2977 59.5565 38.0906C59.5649 37.9185 59.5691 37.7465 59.5691 37.5745L59.5733 28.9905H59.5691ZM50.6536 30.9036L51.2913 32.8754L53.3681 32.8712C53.7079 32.8712 54.0226 32.9761 54.2827 33.1649C54.5428 33.3537 54.7442 33.6222 54.8491 33.9453C54.954 34.2683 54.9498 34.604 54.8491 34.9061C54.7484 35.2123 54.5554 35.485 54.2827 35.6822L52.6003 36.8989L53.2464 38.8708C53.3513 39.1896 53.3471 39.5211 53.2506 39.8273C53.1499 40.1378 52.9569 40.4105 52.6842 40.6077C52.4115 40.8049 52.0927 40.9014 51.7696 40.9014C51.4466 40.9014 51.1319 40.8007 50.855 40.6035L49.1768 39.3785L47.4986 40.6035C47.2259 40.8007 46.907 40.9014 46.584 40.9014C46.2609 40.9014 45.942 40.8049 45.6693 40.6077C45.3966 40.4105 45.2036 40.1336 45.103 39.8273C45.0065 39.5211 44.9981 39.1896 45.1072 38.8708L45.7533 36.8989L44.0709 35.6822C43.7982 35.485 43.6052 35.2123 43.5045 34.9061C43.4038 34.5998 43.3996 34.2683 43.5045 33.9453C43.6094 33.6222 43.8108 33.3537 44.0709 33.1649C44.3268 32.9761 44.6457 32.8712 44.9855 32.8712L47.0623 32.8754L47.7 30.9036C47.8049 30.5805 48.0021 30.312 48.2622 30.1232C48.5265 29.9302 48.8412 29.8211 49.1768 29.8211C49.5125 29.8211 49.8271 29.9302 50.0914 30.1232C50.3516 30.312 50.5529 30.5805 50.6536 30.9036ZM49.416 33.8992L49.1768 33.1566L48.9377 33.8992C48.8328 34.2265 48.6314 34.495 48.3713 34.6838C48.1154 34.8726 47.7965 34.9775 47.4567 34.9775H46.6763L47.3098 35.4348V35.439C47.5574 35.6194 47.7378 35.8543 47.8426 36.1228C47.8552 36.1522 47.8678 36.1816 47.8762 36.2151C47.9769 36.5214 47.9811 36.8571 47.872 37.1759L47.6287 37.9227L48.2622 37.4612C48.5391 37.2598 48.858 37.1549 49.1768 37.1549C49.4957 37.1549 49.8103 37.2556 50.0914 37.4612L50.7249 37.9227L50.4816 37.1759C50.3767 36.8529 50.3809 36.5214 50.4774 36.2151C50.5781 35.9089 50.7711 35.6362 51.0438 35.439L51.6773 34.9817H50.897C50.5571 34.9817 50.2383 34.8768 49.9823 34.688C49.7222 34.495 49.5208 34.2265 49.416 33.8992ZM20.7098 0C25.0311 0 28.5345 3.50323 28.5345 7.82468C28.5345 12.1461 25.0312 15.6494 20.7098 15.6494C16.3885 15.6494 12.8851 12.1461 12.8851 7.82468C12.8851 3.50323 16.3883 0 20.7098 0ZM29.8896 36.8657L30.477 28.0132C30.5105 27.5014 30.6112 27.065 30.863 26.6161L41.0329 8.60423C41.4063 7.94553 41.5238 7.25747 41.3308 6.52325C41.142 5.79323 40.7141 5.23106 40.0596 4.85342L38.7674 4.10663C37.4836 3.36402 35.7928 3.77518 35.0711 5.0674L27.1835 19.2191C26.9444 19.647 26.508 19.8778 26.0172 19.8778H15.4068C14.9159 19.8778 14.4795 19.647 14.2404 19.2191L6.34863 5.07169C5.627 3.77531 3.94039 3.36835 2.65239 4.11092L1.3602 4.85772C0.705694 5.23531 0.277771 5.79752 0.0889529 6.52755C-0.0998439 7.26176 0.0176294 7.94981 0.38683 8.60852L10.5568 26.6204C10.8085 27.0693 10.9092 27.5056 10.9428 28.0175L11.5302 36.87C11.5511 36.87 11.5763 36.8659 11.6015 36.8659H29.8185L29.8896 36.8657Z" fill="#F8F3E3"/>
</svg>
