<svg width="100" height="56" viewBox="0 0 100 56" fill="none" xmlns="http://www.w3.org/2000/svg">
<path d="M36.2105 34.3169H27.2632C27.2632 34.3169 18.7368 27.4748 18 26.8432C17.2632 26.2117 15.8947 25.5801 14.4211 25.5801H5.57895C2.42105 25.5801 0 28.1064 0 31.159V52.9485C0 54.2117 1.05263 55.159 2.21053 55.159H17.6842C18.9474 55.159 19.8947 54.1064 19.8947 52.9485L19.7895 39.8959L22.7368 42.2117C23.5789 42.8432 24.5263 43.159 25.5789 43.159H36C38.4211 43.159 40.5263 41.3696 40.6316 38.9485C40.8421 36.5274 38.7368 34.3169 36.2105 34.3169Z" fill="#F8F3E3"/>
<path d="M10.0002 22.9477C15.4649 22.9477 19.8949 18.5177 19.8949 13.0529C19.8949 7.58823 15.4649 3.1582 10.0002 3.1582C4.53549 3.1582 0.105469 7.58823 0.105469 13.0529C0.105469 18.5177 4.53549 22.9477 10.0002 22.9477Z" fill="#F8F3E3"/>
<path d="M97.8958 20.6316H95.58C94.6326 12.2105 87.8958 5.47368 79.3695 4.42105V2.10526C79.3695 0.947368 78.4221 0 77.2642 0C76.1063 0 75.1589 0.947368 75.1589 2.10526V4.42105C66.7379 5.36842 60.001 12.1053 58.9484 20.6316H56.6326C55.4747 20.6316 54.5273 21.5789 54.5273 22.7368C54.5273 23.8947 55.4747 24.8421 56.6326 24.8421H58.9484C59.8958 33.2632 66.6326 40 75.1589 41.0526V43.3684C75.1589 44.5263 76.1063 45.4737 77.2642 45.4737C78.4221 45.4737 79.3695 44.5263 79.3695 43.3684V41.0526C87.7905 40.1053 94.5273 33.3684 95.58 24.8421H97.8958C99.0537 24.8421 100.001 23.8947 100.001 22.7368C100.001 21.5789 99.0537 20.6316 97.8958 20.6316ZM91.3695 20.6316H86.4221C85.58 17.1579 82.9484 14.4211 79.4747 13.6842V8.73684C85.58 9.68421 90.4221 14.5263 91.3695 20.6316ZM77.3695 27.8947C74.5273 27.8947 72.2116 25.5789 72.2116 22.7368C72.2116 19.8947 74.5273 17.5789 77.3695 17.5789C80.2116 17.5789 82.5273 19.8947 82.5273 22.7368C82.5273 25.5789 80.1063 27.8947 77.3695 27.8947ZM75.1589 8.73684V13.6842C71.6852 14.5263 68.9484 17.1579 68.2116 20.6316H63.2642C64.2116 14.5263 69.0537 9.68421 75.1589 8.73684ZM63.2642 24.8421H68.2116C69.0537 28.3158 71.6852 31.0526 75.1589 31.7895V36.7368C69.0537 35.7895 64.2116 30.9474 63.2642 24.8421ZM79.4747 36.7368V31.7895C82.9484 30.9474 85.6852 28.3158 86.4221 24.8421H91.3695C90.4221 30.9474 85.58 35.7895 79.4747 36.7368Z" fill="#F8F3E3"/>
<path d="M42.5262 14.946C41.6841 14.1039 40.3157 14.1039 39.5788 14.946C38.7367 15.7881 38.7367 17.1566 39.5788 17.8934L42.2104 20.525H25.0525C23.8946 20.525 22.9473 21.4723 22.9473 22.6302C22.9473 23.7881 23.8946 24.7355 25.0525 24.7355H42.2104L39.4736 27.4723C38.6315 28.3145 38.6315 29.6829 39.4736 30.4197C39.8946 30.8408 40.421 31.0513 40.9473 31.0513C41.4736 31.0513 41.9999 30.8408 42.421 30.4197L48.7367 24.1039C49.5788 23.2618 49.5788 21.8934 48.7367 21.1566L42.5262 14.946Z" fill="#F8F3E3"/>
</svg>
