<svg width="100" height="98" viewBox="0 0 100 98" fill="none" xmlns="http://www.w3.org/2000/svg">
<path fill-rule="evenodd" clip-rule="evenodd" d="M28.2292 73.9869L29.6269 78.3185H34.1792H34.1748C34.3523 78.3185 34.508 78.431 34.5643 78.5955C34.6162 78.7642 34.5513 78.9503 34.4085 79.0498L30.7218 81.711L32.141 86.0295H32.1367C32.1973 86.194 32.1367 86.38 31.9939 86.4839C31.8554 86.5921 31.6564 86.5921 31.5179 86.4839L27.8398 83.801L24.1617 86.4839C24.0232 86.5921 23.8241 86.5921 23.6857 86.4839C23.5429 86.38 23.4823 86.194 23.5429 86.0295L24.9492 81.711L21.2624 79.0411H21.2581C21.124 78.9329 21.072 78.7511 21.124 78.5867C21.1802 78.4266 21.3317 78.3141 21.5047 78.3098H26.057L27.4547 73.9782H27.4503C27.5109 73.8094 27.6667 73.7012 27.8398 73.7012C28.0129 73.7012 28.1687 73.8094 28.2292 73.9782L28.2292 73.9869ZM33.9455 8.48574C37.4246 9.49399 40.6051 11.333 43.2145 13.8471L48.6408 11.4672H48.6451C50.0384 10.8441 51.6742 11.3806 52.4314 12.7048L55.0451 17.2224V17.2267C55.811 18.5465 55.4605 20.2341 54.2273 21.1341L49.4543 24.6349C50.3154 28.1573 50.3154 31.8311 49.4543 35.3491L54.2273 38.8499C55.4562 39.7499 55.811 41.4289 55.0451 42.7487L52.4314 47.2792C51.6698 48.599 50.0384 49.1313 48.6451 48.5211L43.2188 46.1412L43.2145 46.1369C40.6051 48.6466 37.4203 50.4857 33.9455 51.4982L33.3051 57.3703H33.3008C33.1407 58.8892 31.8598 60.0446 30.3323 60.0402H25.105C23.5775 60.0446 22.2923 58.8892 22.1365 57.3703L21.4961 51.4982H21.4917C18.0084 50.49 14.8235 48.651 12.2099 46.1369L6.79223 48.5211C5.39888 49.1313 3.76747 48.599 3.00156 47.2792L0.38789 42.7487C-0.365049 41.4202 0.00709459 39.7369 1.25333 38.8499L6.02626 35.3491C5.16515 31.8311 5.16515 28.1573 6.02626 24.6349L1.25333 21.1341C0.0200555 20.2341 -0.330442 18.5465 0.43549 17.2267L3.04916 12.7091V12.7048C3.8021 11.4023 5.4118 10.8701 6.79219 11.4672L12.2098 13.8471C14.8235 11.3373 18.0083 9.49823 21.4917 8.48573L22.1321 2.60504H22.1365C22.3269 1.1121 23.599 -0.0043078 25.1049 1.24961e-05H30.3323C31.8555 -0.00431444 33.1363 1.14234 33.3008 2.65688L33.9412 8.53758L33.9455 8.48574ZM26.4552 42.636C26.4552 43.1466 26.7624 43.6096 27.2341 43.8044C27.7057 43.9991 28.2509 43.8909 28.6101 43.5317C28.9736 43.1683 29.0818 42.6274 28.8827 42.1557C28.688 41.684 28.2293 41.3768 27.7187 41.3768C27.022 41.3768 26.4552 41.9393 26.4552 42.636ZM39.0948 29.9875C39.0948 30.4981 39.402 30.9568 39.8737 31.1559C40.3453 31.3506 40.8906 31.2424 41.2497 30.8789C41.6132 30.5198 41.7214 29.9745 41.5224 29.5029C41.3276 29.0312 40.869 28.724 40.3583 28.724C39.6616 28.7283 39.0991 29.2909 39.0948 29.9875ZM26.4552 17.3479C26.4552 17.8585 26.7624 18.3172 27.2341 18.5162C27.7057 18.711 28.2509 18.6028 28.6101 18.2393C28.9736 17.8801 29.0818 17.3349 28.8827 16.8632C28.688 16.3916 28.2293 16.0843 27.7187 16.0843C27.022 16.0843 26.4552 16.6512 26.4552 17.3479ZM26.7321 20.7577V27.6942C26.1652 27.9409 25.7109 28.3909 25.4599 28.9577H19.4667C18.9474 29.0097 18.5537 29.4467 18.5537 29.9703C18.5537 30.4939 18.9474 30.9309 19.4667 30.9829H25.4382H25.4339C25.7844 31.7142 26.4681 32.2291 27.2643 32.3676C28.0605 32.5017 28.874 32.2464 29.4496 31.6709C30.0207 31.0997 30.2804 30.2862 30.1419 29.4899C30.0034 28.6894 29.4885 28.01 28.7572 27.6595V20.7576C28.7572 20.2037 28.3072 19.7494 27.7533 19.7494C27.1951 19.7494 26.745 20.2037 26.745 20.7576L26.7321 20.7577ZM13.8022 29.9876C13.7719 30.3424 13.8888 30.6973 14.1311 30.9656C14.3734 31.2295 14.7153 31.381 15.0744 31.381C15.4293 31.381 15.7711 31.2295 16.0135 30.9656C16.2558 30.6973 16.3726 30.3424 16.3423 29.9876C16.2817 29.3342 15.7322 28.8322 15.0745 28.8322C14.4168 28.8322 13.8672 29.3342 13.8022 29.9876ZM27.718 12.661C23.1182 12.661 18.7088 14.4871 15.4595 17.7411C12.2054 20.9909 10.3793 25.4047 10.3793 29.9997C10.3837 34.5995 12.2097 39.0089 15.4638 42.2582C18.7135 45.5123 23.1273 47.334 27.7268 47.334C32.3222 47.3297 36.7317 45.5037 39.9809 42.2496C43.2306 38.9955 45.0567 34.5861 45.0524 29.9866C45.0524 25.3912 43.222 20.9817 39.9722 17.7358C36.7225 14.4861 32.3129 12.661 27.718 12.661ZM90.5406 50.3251L87.2693 68.7805C86.2394 74.8387 80.9732 79.2524 74.8324 79.2178C68.6834 79.2567 63.4124 74.8387 62.3788 68.7805L59.0685 50.4248C60.1979 50.9874 61.3662 51.4677 62.5693 51.8528C66.3988 53.1034 70.4015 53.7395 74.4301 53.7481C78.5626 53.7265 82.6691 53.0904 86.6156 51.8658C87.957 51.4634 89.2681 50.9571 90.5273 50.3469L90.5406 50.3251ZM90.0084 64.9377L89.6189 67.1532L96.0319 65.5565C98.3729 64.9939 100.013 62.8996 99.9999 60.4936V58.7757C99.9913 55.8981 97.6589 53.5658 94.7813 53.5615H92.0249L91.67 55.5779H94.7813C96.5469 55.5823 97.9791 57.0103 97.9834 58.7757V60.4719C97.9964 61.9475 96.9925 63.2414 95.5559 63.5832L90.017 64.955L90.0084 64.9377ZM75.3604 58.9748C75.3041 58.8104 75.1483 58.6978 74.9752 58.6978C74.7978 58.6978 74.642 58.8104 74.5858 58.9748L73.1881 63.3064H68.6359C68.4628 63.3064 68.307 63.4189 68.2507 63.5833C68.1945 63.7521 68.2594 63.9382 68.4065 64.0377L72.1495 66.6989L70.7303 71.0305C70.6783 71.1949 70.7346 71.3766 70.8774 71.4848C71.0202 71.58 71.2106 71.58 71.3534 71.4848L75.0315 68.7933L78.7096 71.4848C78.8524 71.58 79.0385 71.58 79.1856 71.4848C79.3241 71.3766 79.3803 71.1949 79.3284 71.0305L77.9091 66.6989L81.5959 64.0289H81.6002C81.7474 63.9294 81.8079 63.7433 81.756 63.5746C81.6954 63.4101 81.5397 63.2976 81.3666 63.2976H76.758L75.3604 58.9748ZM91.0375 47.5116C91.0375 46.6938 83.2052 43.2926 74.421 43.2926C65.6367 43.2926 58.5489 46.6937 58.5489 47.5116C58.5489 48.3295 65.6499 51.7307 74.421 51.7307C83.1966 51.7307 91.0375 48.3424 91.0375 47.5116ZM77.3111 81.0216L78.6742 88.975C78.7911 89.6241 78.6093 90.2948 78.1809 90.7967C77.7525 91.303 77.1208 91.5886 76.4587 91.58H73.1354C72.4733 91.5886 71.8415 91.303 71.4131 90.7967C70.9848 90.2948 70.803 89.6241 70.9198 88.975L72.27 81.0216C73.0922 81.1644 73.9273 81.2336 74.7625 81.2293C75.5933 81.2336 76.4241 81.1644 77.2463 81.0216H77.3111ZM87.1945 92.333C87.1945 90.2516 84.2909 88.4428 80.0805 87.625L80.271 88.7327H80.2666C80.4397 89.8362 80.1195 90.9656 79.3925 91.8181C78.6656 92.6662 77.601 93.1595 76.4803 93.1638H73.157C72.0276 93.1681 70.9544 92.6705 70.2318 91.8007C69.4876 90.9439 69.1717 89.7929 69.3794 88.6765L69.5568 87.5687C65.4027 88.3995 62.5207 90.1824 62.4991 92.2551C62.4991 95.1371 68.0379 97.4607 74.8407 97.4607C81.6431 97.4607 87.2034 95.1326 87.2378 92.2551L87.1945 92.333ZM57.9251 55.5773L57.5703 53.5608H55.1686C52.304 53.5911 49.9976 55.9148 49.9932 58.7751V60.493C49.9803 62.886 51.6029 64.9803 53.9267 65.5558L59.9631 67.118L59.5737 64.9025L54.4244 63.5956C52.9963 63.2494 51.9925 61.9642 52.0098 60.493V58.7751C52.0141 57.0095 53.4464 55.5816 55.2119 55.5773H57.9251ZM77.9303 61.6916L76.9004 58.4808V58.4765C76.6278 57.6414 75.8532 57.0788 74.9748 57.0788C74.0963 57.0788 73.3174 57.6414 73.0448 58.4765L72.0149 61.6873H68.6916V61.6916C67.8045 61.67 67.0084 62.2282 66.7228 63.0677C66.4372 63.9071 66.7358 64.8332 67.4541 65.3567L70.1889 67.3387L69.0812 70.5408C68.8475 71.3673 69.1547 72.25 69.8558 72.7477C70.5524 73.2453 71.4915 73.2496 72.1925 72.7563L74.9186 70.7614L77.688 72.7909C78.389 73.2842 79.328 73.2799 80.0247 72.7822C80.7257 72.2846 81.0373 71.3975 80.7993 70.5753L79.7478 67.3732L82.4956 65.3567C83.1966 64.8375 83.4865 63.933 83.2182 63.1022C82.9499 62.2757 82.1797 61.7089 81.3099 61.7002L77.9303 61.6916ZM74.2521 13.9324L75.6498 18.264H80.2021C80.3752 18.2683 80.5266 18.3808 80.5829 18.5453C80.6348 18.7097 80.5829 18.8915 80.4444 18.9953L76.7576 21.6652L78.1639 25.9838V25.9881C78.2202 26.1525 78.1639 26.3386 78.0211 26.4425C77.8783 26.5506 77.6836 26.5506 77.5451 26.4425L73.867 23.7596L70.1889 26.4425C70.0504 26.5506 69.8514 26.5506 69.7129 26.4425C69.5701 26.3386 69.5095 26.1525 69.5701 25.9881L71.0413 21.6653L67.3546 18.9953C67.2118 18.8915 67.1555 18.7097 67.2075 18.541C67.2594 18.3765 67.4108 18.264 67.5839 18.264H72.1362L73.5425 13.9324H73.5468C73.5944 13.768 73.7502 13.6555 73.9233 13.6555C74.0747 13.6771 74.2045 13.7853 74.2521 13.9324Z" fill="#F8F3E3"/>
</svg>
