<svg width="100" height="87" viewBox="0 0 100 87" fill="none" xmlns="http://www.w3.org/2000/svg">
<path d="M32.6179 53.1799H36.3545V54.474H32.6179V53.1799ZM63.6434 54.474H67.3918V53.1799H63.6434V54.474ZM75.9657 58.1752H80.1759L80.1719 36.9861H68.0546V50.9499C68.9306 51.1037 69.6448 51.9047 69.6408 52.8083V54.5641C72.1148 54.9232 74.4032 56.226 75.9657 58.1752ZM80.1167 83.7512C80.4639 85.1953 79.2407 86.6947 77.7532 86.6552H72.3634C68.615 86.6552 65.1624 84.6192 63.3631 81.3443L62.641 80.0382C61.6625 78.2705 59.7843 77.1697 57.7562 77.1697H42.2298C40.2057 77.1697 38.3354 78.2705 37.345 80.0619L36.6466 81.3443C34.8474 84.6192 31.4028 86.6552 27.6543 86.6552H22.2408C20.7492 86.6947 19.5497 85.1953 19.8891 83.7512L22.1382 73.0824L24.3321 62.6732C25.0305 59.3548 28.0805 56.7427 31.5094 56.7309L38.4421 56.7191C38.5092 56.7191 38.5644 56.7546 38.5999 56.798L39.9967 58.9919H59.9818C60.2067 58.6486 61.1616 57.1689 61.3982 56.798C61.4298 56.7546 61.489 56.7191 61.5561 56.7191H68.3072C70.8522 56.7191 73.3025 58.0804 74.6519 60.2308C75.7173 60.7122 79.6234 82.2875 80.1167 83.7512ZM37.3133 63.9005C37.7868 58.8144 30.6095 58.8144 31.079 63.9005C26.0087 63.4349 26.0087 70.6003 31.079 70.1348C30.6134 75.205 37.7788 75.205 37.3133 70.1348H38.0353C42.6164 69.8231 41.9061 63.3639 37.3133 63.9005ZM46.132 69.898H44.0171C43.3976 69.898 42.8925 70.4031 42.8925 71.0226C42.8925 71.6539 43.3976 72.1471 44.0171 72.1471H46.132C47.6077 72.155 47.6077 69.9059 46.132 69.898ZM55.9806 69.898H53.8656C52.386 69.9256 52.39 72.1273 53.8656 72.1471H55.9806C57.4563 72.1313 57.4602 69.9257 55.9806 69.898ZM68.9191 63.9005C69.3926 58.8144 62.2153 58.8144 62.6848 63.9005C57.6027 63.427 57.5987 70.6043 62.6848 70.1348C62.2192 75.205 69.3847 75.205 68.9191 70.1348H69.6372C74.2262 69.8231 73.5119 63.3639 68.9191 63.9005ZM30.3693 54.5609C30.3811 54.2926 30.3377 52.6788 30.4048 52.4459C30.5705 51.6883 31.19 51.0728 31.9594 50.9505V42.0844H19.8381V58.1755H24.0363C25.5633 56.246 27.9309 54.8884 30.3693 54.5609ZM56.0604 56.7469V28.9416H43.9512V56.7469H56.0604ZM82.4263 58.1753V34.7377H65.8029V50.9308H63.2698C62.236 50.9308 61.3916 51.7752 61.3916 52.809V54.474C60.6498 54.5806 59.9159 54.9278 59.5134 55.5868L58.7597 56.7468H58.3099V26.692H41.7027V56.7468H41.241L40.4874 55.5748C40.0692 54.9199 39.351 54.5805 38.6092 54.474V52.809C38.6092 51.7752 37.7648 50.9308 36.731 50.9308H34.2097L34.2057 39.8317H17.5864V58.1753H8.3257C7.26822 58.1753 6.41205 57.3072 6.41205 56.2498L6.416 8.32513C6.416 7.26764 7.27223 6.39965 8.32965 6.39965H91.6759C92.7333 6.39965 93.6013 7.26772 93.6013 8.32513V56.2498C93.6013 57.3073 92.7333 58.1753 91.6759 58.1753H82.4263ZM33.1168 27.3437L28.8277 26.7242L26.9023 22.8297C26.5314 22.0643 25.2608 22.0643 24.8899 22.8297L22.9645 26.7242L18.6754 27.3437C18.2493 27.3989 17.8981 27.7027 17.764 28.1092C17.6416 28.5156 17.7403 28.9654 18.0559 29.2692L21.1612 32.2837L20.4194 36.5609C20.3523 36.9871 20.522 37.4172 20.8692 37.6618C21.2165 37.9103 21.6781 37.9419 22.049 37.7407L25.8883 35.7283L29.7354 37.7407C30.1063 37.9498 30.5679 37.9143 30.9152 37.6618C31.2624 37.4132 31.4321 36.987 31.365 36.5609L30.6232 32.2837L33.7285 29.2692C34.4111 28.6536 34.0125 27.4423 33.1168 27.3437ZM57.217 13.9203L52.9319 13.3008L51.0182 9.41819C50.6355 8.64088 49.3768 8.64088 48.9941 9.41819L47.0804 13.3008L42.7914 13.9203C42.3653 13.9874 42.0141 14.2794 41.8799 14.6976C41.7458 15.104 41.8563 15.542 42.1601 15.8458L45.2654 18.8722L44.5354 23.1494C44.4683 23.5677 44.638 23.9938 44.9852 24.2424C45.3324 24.5028 45.7822 24.5344 46.165 24.3331L50.0003 22.3208L53.8356 24.3331C54.2223 24.5265 54.676 24.4949 55.0154 24.2424C55.3626 23.9938 55.5323 23.5676 55.4652 23.1494L54.7352 18.8722L57.8405 15.8458C58.5192 15.2224 58.1127 14.0268 57.217 13.9203ZM81.3334 22.0446L77.0443 21.4133L75.1189 17.5307C74.748 16.7534 73.4774 16.7652 73.1065 17.5307L71.181 21.4133L66.892 22.0446C66.4738 22.0999 66.1147 22.3919 65.9806 22.8101C65.8582 23.2165 65.9687 23.6663 66.2725 23.9583L69.3778 26.9847L68.6478 31.2619C68.5689 31.6802 68.7504 32.1063 69.0858 32.3548C69.433 32.6153 69.8947 32.6468 70.2775 32.4456L74.1049 30.4333L77.9401 32.4456C78.3268 32.6547 78.7766 32.6192 79.1318 32.3548C79.479 32.1063 79.6487 31.6801 79.5697 31.2619L78.8398 26.9847L81.9451 23.9583C82.6237 23.3507 82.229 22.1314 81.3334 22.0446ZM91.4819 0H8.53068C3.82741 0 0 3.82741 0 8.51886V63.2072C0 67.8987 3.82741 71.7261 8.53068 71.7261H20.1308C20.4701 70.4161 22.1195 61.4593 22.6956 60.429L8.32472 60.4251C6.02834 60.4251 4.16196 58.5587 4.16196 56.2505V8.32583C4.16196 6.01752 6.02834 4.15124 8.32472 4.15124H91.6709C93.9792 4.15124 95.8455 6.01762 95.8455 8.32583V56.2505C95.8455 58.5588 93.9791 60.4251 91.6709 60.4251H77.3163C77.9042 61.5062 79.5259 70.3565 79.881 71.7222H91.4811C96.1726 71.7222 100 67.8947 100 63.2033V8.51896C100 3.8275 96.1734 0 91.4819 0ZM69.6423 66.1541H66.6712V63.183C66.6712 62.7095 66.2766 62.3149 65.8031 62.3149C65.3178 62.3149 64.9351 62.7095 64.9351 63.183V66.1541H61.9639C61.4904 66.1541 61.0959 66.5487 61.0959 67.0222C61.0959 67.4957 61.4904 67.8903 61.9639 67.8903H64.9351V70.8496C64.9351 71.3231 65.3178 71.7177 65.8031 71.7177C66.2766 71.7177 66.6712 71.3231 66.6712 70.8496V67.8903H69.6423C70.1158 67.8903 70.5104 67.4957 70.5104 67.0222C70.5065 66.5487 70.1158 66.1541 69.6423 66.1541ZM51.1765 14.8314L50.0046 12.4561L48.8327 14.8314C48.663 15.1589 48.3473 15.3957 47.9883 15.4391L45.3683 15.8218L47.2583 17.6684C47.5266 17.9288 47.6528 18.2997 47.5858 18.6706L47.136 21.2827C47.5069 21.1367 49.6099 19.8346 50.0045 19.9214C50.399 19.8424 52.4982 21.1327 52.873 21.2827L52.4232 18.6706C52.3561 18.2997 52.4784 17.9288 52.7507 17.6684L54.6407 15.8218L52.0207 15.4391C51.6616 15.3917 51.3462 15.155 51.1765 14.8314ZM75.2889 22.9438L74.109 20.5685L72.9371 22.9438C72.7793 23.2713 72.4636 23.5081 72.0927 23.5633L69.4807 23.9342L71.3707 25.7808C71.6311 26.0412 71.7534 26.424 71.6982 26.783L71.2484 29.3951C71.6114 29.253 73.7223 27.9509 74.1051 28.0337C74.5075 27.9548 76.5909 29.2411 76.9736 29.3951L76.5238 26.783C76.4685 26.424 76.5909 26.0412 76.8513 25.7808L78.7413 23.9342L76.1293 23.5633C75.7623 23.5041 75.4467 23.2713 75.2889 22.9438ZM27.0723 28.243L25.8925 25.8676L24.7205 28.243C24.5627 28.5823 24.247 28.8072 23.8761 28.8625L21.2561 29.2452L23.1579 31.0918C23.4184 31.3522 23.5407 31.7231 23.4854 32.0822L23.0356 34.6942C23.3986 34.5522 25.5175 33.2619 25.8923 33.3329C26.2948 33.2658 28.3742 34.5442 28.7608 34.6942L28.311 32.0822C28.2558 31.7231 28.3781 31.3522 28.6385 31.0918L30.5404 29.2452L27.9203 28.8625C27.5455 28.8072 27.2301 28.5823 27.0723 28.243ZM38.034 66.1534H35.0628V63.1823C35.0628 62.7088 34.6683 62.3142 34.1948 62.3142C33.7213 62.3142 33.3267 62.7088 33.3267 63.1823V66.1534H30.3713C29.886 66.1534 29.5033 66.548 29.5033 67.0215C29.5033 67.495 29.886 67.8896 30.3713 67.8896H33.3307V70.8489C33.3307 71.3224 33.7252 71.7169 34.1987 71.7169C34.6722 71.7169 35.0668 71.3224 35.0668 70.8489V67.8896H38.0379C38.5114 67.8896 38.906 67.495 38.906 67.0215C38.9021 66.548 38.5075 66.1534 38.034 66.1534Z" fill="#F8F3E3"/>
</svg>
