<svg width="100" height="100" viewBox="0 0 100 100" fill="none" xmlns="http://www.w3.org/2000/svg">
<path d="M44.0679 32.628C44.0674 32.0335 43.8559 31.4584 43.471 31.0052C43.0861 30.552 42.5529 30.2502 41.9662 30.1534L33.8984 28.8145V33.8992L41.1527 35.1026C41.5118 35.1628 41.8797 35.1439 42.2308 35.0471C42.5819 34.9504 42.9076 34.7782 43.1852 34.5425C43.4628 34.3069 43.6856 34.0135 43.8381 33.6828C43.9905 33.3521 44.069 32.9922 44.0679 32.628Z" fill="#F8F3E3"/>
<path d="M94.9159 15.2539H74.5769C73.2284 15.2539 71.9351 15.7896 70.9815 16.7432C70.0279 17.6968 69.4922 18.9901 69.4922 20.3387C69.4922 21.6872 70.0279 22.9805 70.9815 23.9341C71.9351 24.8877 73.2284 25.4234 74.5769 25.4234H78.0057C79.1148 26.8919 80.6737 27.9574 82.4447 28.4573L79.6617 42.3726H89.8312L87.0481 28.4573C88.8191 27.9574 90.3781 26.8919 91.4871 25.4234H94.9159C96.2645 25.4234 97.5578 24.8877 98.5114 23.9341C99.4649 22.9805 100.001 21.6872 100.001 20.3387C100.001 18.9901 99.4649 17.6968 98.5114 16.7432C97.5578 15.7896 96.2645 15.2539 94.9159 15.2539ZM74.5769 22.0336C74.1274 22.0336 73.6963 21.855 73.3784 21.5371C73.0606 21.2193 72.882 20.7882 72.882 20.3387C72.882 19.8891 73.0606 19.458 73.3784 19.1402C73.6963 18.8223 74.1274 18.6437 74.5769 18.6437H76.2718V20.3387C76.2711 20.9079 76.3279 21.4757 76.4413 22.0336H74.5769ZM94.9159 22.0336H93.0515C93.1649 21.4757 93.2217 20.9079 93.221 20.3387V18.6437H94.9159C95.3654 18.6437 95.7965 18.8223 96.1144 19.1402C96.4323 19.458 96.6108 19.8891 96.6108 20.3387C96.6108 20.7882 96.4323 21.2193 96.1144 21.5371C95.7965 21.855 95.3654 22.0336 94.9159 22.0336Z" fill="#F8F3E3"/>
<path d="M98.3042 45.7617H71.1855V99.999H98.3042V45.7617Z" fill="#F8F3E3"/>
<path d="M62.7124 59.3223H35.5938V100H62.7124V59.3223Z" fill="#F8F3E3"/>
<path d="M27.1186 72.8809H0V99.9995H27.1186V72.8809Z" fill="#F8F3E3"/>
<path d="M25.4242 18.6433C29.1685 18.6433 32.2039 15.6079 32.2039 11.8636C32.2039 8.11934 29.1685 5.08398 25.4242 5.08398C21.6799 5.08398 18.6445 8.11934 18.6445 11.8636C18.6445 15.6079 21.6799 18.6433 25.4242 18.6433Z" fill="#F8F3E3"/>
<path d="M18.155 43.3398L15.6974 65.5771C15.5977 66.4743 15.8457 67.3756 16.3905 68.0953C16.9353 68.8151 17.7353 69.2986 18.6258 69.4463C19.5163 69.594 20.4296 69.3947 21.1776 68.8893C21.9255 68.3839 22.4513 67.611 22.6465 66.7297L26.9347 47.4585H25.4262C23.9616 47.4588 22.522 47.0795 21.2476 46.3577C19.9733 45.6359 18.9078 44.5961 18.155 43.3398Z" fill="#F8F3E3"/>
<path d="M9.88103 45.7632C10.4479 45.7631 10.9985 45.5736 11.4453 45.2247C11.8922 44.8759 12.2096 44.3877 12.3471 43.8378L15.1353 32.6818C15.2402 32.2594 15.4961 31.8901 15.8547 31.6435C16.2133 31.3969 16.6498 31.2901 17.0818 31.3433C17.5137 31.3965 17.9113 31.6059 18.1994 31.9322C18.4874 32.2584 18.6461 32.6788 18.6454 33.114V38.9835C18.6454 40.7816 19.3597 42.506 20.6312 43.7775C21.9026 45.0489 23.627 45.7632 25.4251 45.7632H37.2895V52.5428C37.2895 53.4419 37.6466 54.3041 38.2824 54.9398C38.9181 55.5755 39.7803 55.9327 40.6793 55.9327C41.5784 55.9327 42.4406 55.5755 43.0763 54.9398C43.712 54.3041 44.0692 53.4419 44.0692 52.5428V42.3733C44.0692 41.4743 43.712 40.6121 43.0763 39.9764C42.4406 39.3407 41.5784 38.9835 40.6793 38.9835H32.2048V25.4242C32.2048 23.6261 31.4905 21.9017 30.219 20.6302C28.9476 19.3588 27.2232 18.6445 25.4251 18.6445H21.82C20.8261 18.6444 19.8444 18.8629 18.9443 19.2844C18.0443 19.7058 17.2479 20.3201 16.6115 21.0835L11.2726 27.492C10.5484 28.3619 10.0532 29.399 9.83188 30.5089L7.38781 42.7293C7.31522 43.0976 7.32512 43.4775 7.4168 43.8416C7.50847 44.2057 7.67964 44.5449 7.918 44.835C8.15637 45.125 8.45603 45.3587 8.79544 45.5192C9.13485 45.6797 9.50559 45.763 9.88103 45.7632Z" fill="#F8F3E3"/>
<path d="M91.5269 6.77966H93.2219V8.47458C93.2219 8.9241 93.4004 9.3552 93.7183 9.67306C94.0361 9.99092 94.4673 10.1695 94.9168 10.1695C95.3663 10.1695 95.7974 9.99092 96.1153 9.67306C96.4331 9.3552 96.6117 8.9241 96.6117 8.47458V6.77966H98.3066C98.7561 6.77966 99.1872 6.60109 99.5051 6.28323C99.823 5.96537 100.002 5.53427 100.002 5.08475C100.002 4.63523 99.823 4.20412 99.5051 3.88626C99.1872 3.5684 98.7561 3.38983 98.3066 3.38983H96.6117V1.69492C96.6117 1.2454 96.4331 0.814287 96.1153 0.496429C95.7974 0.178571 95.3663 0 94.9168 0C94.4673 0 94.0361 0.178571 93.7183 0.496429C93.4004 0.814287 93.2219 1.2454 93.2219 1.69492V3.38983H91.5269C91.0774 3.38983 90.6463 3.5684 90.3285 3.88626C90.0106 4.20412 89.832 4.63523 89.832 5.08475C89.832 5.53427 90.0106 5.96537 90.3285 6.28323C90.6463 6.60109 91.0774 6.77966 91.5269 6.77966Z" fill="#F8F3E3"/>
<path d="M67.7968 30.509H66.1019V28.8141C66.1019 28.3645 65.9234 27.9334 65.6055 27.6156C65.2876 27.2977 64.8565 27.1191 64.407 27.1191C63.9575 27.1191 63.5264 27.2977 63.2085 27.6156C62.8907 27.9334 62.7121 28.3645 62.7121 28.8141V30.509H61.0172C60.5677 30.509 60.1366 30.6875 59.8187 31.0054C59.5008 31.3233 59.3223 31.7544 59.3223 32.2039C59.3223 32.6534 59.5008 33.0845 59.8187 33.4024C60.1366 33.7202 60.5677 33.8988 61.0172 33.8988H62.7121V35.5937C62.7121 36.0432 62.8907 36.4743 63.2085 36.7922C63.5264 37.1101 63.9575 37.2886 64.407 37.2886C64.8565 37.2886 65.2876 37.1101 65.6055 36.7922C65.9234 36.4743 66.1019 36.0432 66.1019 35.5937V33.8988H67.7968C68.2464 33.8988 68.6775 33.7202 68.9953 33.4024C69.3132 33.0845 69.4918 32.6534 69.4918 32.2039C69.4918 31.7544 69.3132 31.3233 68.9953 31.0054C68.6775 30.6875 68.2464 30.509 67.7968 30.509Z" fill="#F8F3E3"/>
<path d="M64.4078 10.1683H66.1027V11.8632C66.1027 12.3128 66.2813 12.7439 66.5991 13.0617C66.917 13.3796 67.3481 13.5582 67.7976 13.5582C68.2472 13.5582 68.6783 13.3796 68.9961 13.0617C69.314 12.7439 69.4926 12.3128 69.4926 11.8632V10.1683H71.1875C71.637 10.1683 72.0681 9.98976 72.386 9.6719C72.7038 9.35405 72.8824 8.92294 72.8824 8.47342C72.8824 8.0239 72.7038 7.59279 72.386 7.27493C72.0681 6.95707 71.637 6.7785 71.1875 6.7785H69.4926V5.08359C69.4926 4.63407 69.314 4.20296 68.9961 3.8851C68.6783 3.56724 68.2472 3.38867 67.7976 3.38867C67.3481 3.38867 66.917 3.56724 66.5991 3.8851C66.2813 4.20296 66.1027 4.63407 66.1027 5.08359V6.7785H64.4078C63.9583 6.7785 63.5272 6.95707 63.2093 7.27493C62.8915 7.59279 62.7129 8.0239 62.7129 8.47342C62.7129 8.92294 62.8915 9.35405 63.2093 9.6719C63.5272 9.98976 63.9583 10.1683 64.4078 10.1683Z" fill="#F8F3E3"/>
</svg>
