<svg width="944" height="727" viewBox="0 0 944 727" fill="none" xmlns="http://www.w3.org/2000/svg">
<g filter="url(#filter0_i_62_162)">
<path d="M685.734 333.328C664.517 338.917 643.912 344.142 623.429 349.806C616.882 351.616 615.036 349.662 614.841 343.196C614.167 320.829 613.069 298.475 612.08 276.119C611.135 254.722 618.486 237.329 636.225 224.628C658.729 208.514 677.139 188.893 686.772 162.393C692.274 147.258 694.309 131.529 692.965 115.359C691.714 100.309 692.757 85.1346 690.673 70.1112C689.953 64.9194 691.999 61.8469 697.486 60.4817C740.642 49.7423 783.739 38.7648 826.883 27.9761C862.624 19.0377 898.022 8.07614 933.772 0.0740546C935.973 -0.418539 937.252 1.63002 937.576 3.73645C937.873 5.66289 937.966 7.63399 937.99 9.58729C938.539 54.3475 940.368 99.0708 942.892 143.749C945.994 198.638 925.201 241.802 880.835 273.71C863.207 286.387 842.259 291.259 821.744 296.818C776.657 309.035 731.513 321.041 685.734 333.328Z" fill="#A7B8D2"/>
</g>
<g filter="url(#filter1_i_62_162)">
<path d="M468.356 135.478C499.361 126.302 530.195 119.547 560.795 113.037C566.334 112.508 561.668 117.769 560.688 118.864C540.545 141.362 522.918 165.886 504.443 189.696C491.277 206.663 480.277 225.301 468.118 243.062C461.802 252.288 455.107 261.257 448.508 270.287C445.135 274.902 446.119 276.197 440.348 277.131C405.912 284.69 366.461 297.297 331.887 305.223C323.967 307.038 322.173 304.907 321.988 297.418C321.595 281.498 320.461 265.594 319.501 249.692C318.935 240.301 317.839 239.638 308.774 242.022C260.663 254.671 212.55 267.308 164.428 279.915C161.238 280.751 157.972 281.298 155.192 281.884C151.817 279.026 153.16 276.289 153.88 273.663C165.22 232.308 192.833 207.371 233.392 196.376C275.687 184.912 318.215 174.307 360.64 163.321C396.32 154.082 431.998 144.834 468.356 135.478Z" fill="#D91044"/>
</g>
<g filter="url(#filter2_i_62_162)">
<path d="M197.491 663.464C198.464 678.405 199.36 692.639 200.173 706.876C200.363 710.201 200.972 714.173 196.634 715.272C180.964 719.24 165.809 725.29 149.403 726.302C121.182 728.042 110.668 708.544 108.839 689.098C106.373 662.877 106.288 636.541 106.963 610.251C107.998 569.975 141.094 525.699 179.688 514.121C222.249 501.354 265.218 489.949 307.977 477.834C315.672 475.654 315.732 480.671 315.925 485.654C316.715 506.057 317.435 526.464 318.179 546.869C318.189 547.149 318.172 547.429 318.18 547.709C318.867 569.94 318.809 569.709 296.75 575.307C275.611 580.672 254.558 586.403 233.564 592.314C214.364 597.719 198.646 618.115 197.321 639.274C196.833 647.07 197.335 654.928 197.491 663.464Z" fill="#BC032C"/>
</g>
<g filter="url(#filter3_i_62_162)">
<path d="M2.90762 398.263C2.00015 381.531 1.38111 365.598 0.0667094 349.723C-0.438264 343.624 1.91677 341.07 7.3666 339.672C62.6173 325.497 117.871 311.331 173.064 296.935C201.739 289.457 230.304 281.561 258.899 273.777C268.515 271.159 270.198 272.327 270.664 282.418C271.038 290.516 271.269 298.629 271.965 306.701C272.487 312.743 270.429 315.955 264.248 317.34C252.25 320.03 240.427 323.488 228.472 326.379C216.678 329.23 216.176 329.595 216.638 341.392C218.282 383.313 219.775 425.242 221.832 467.144C222.254 475.742 219.999 480.099 211.119 481.409C203.977 482.463 197.055 485.017 190.046 486.943C180.6 489.538 179.826 489.031 179.376 479.603C178.87 468.991 178.324 458.381 177.927 447.765C176.713 415.344 175.411 382.925 174.51 350.495C174.319 343.642 173.118 340.916 165.359 342.878C127.976 352.33 90.3786 360.923 53.236 371.347C46.6212 373.203 43.8375 376.209 45.1022 383.245C45.9352 387.878 45.6867 392.73 45.6805 397.484C45.6724 403.662 48.6272 405.354 54.2972 403.845C70.2495 399.599 86.2002 395.341 102.209 391.314C111.19 389.054 112.254 390.081 112.748 399.539C113.128 406.799 113.396 414.075 114.113 421.305C114.766 427.885 112.777 431.488 105.77 433.174C88.9211 437.227 72.3405 442.389 55.5064 446.509C48.6514 448.187 46.6294 451.659 46.9594 458.365C47.9358 478.202 48.2665 498.07 49.195 517.909C49.4895 524.203 47.8072 527.717 41.1015 529.063C30.5254 531.185 20.418 535.465 8.42828 537.167C4.77783 490.58 5.00457 444.776 2.90762 398.263Z" fill="#F8F3E3"/>
</g>
<g filter="url(#filter4_i_62_162)">
<path d="M715.894 486.788C710.057 478.556 704.587 470.803 698.2 461.751C696.583 471.67 697.828 480.088 698.126 488.471C698.811 507.757 699.474 527.046 700.408 546.322C700.75 553.391 698.173 557.112 690.947 558.466C680.936 560.34 671.416 564.705 660.327 565.402C659.586 557.338 658.613 550.186 658.324 543.007C656.997 510.024 655.951 477.03 654.623 444.047C653.869 425.331 652.895 406.622 651.736 387.928C651.395 382.445 653.492 379.49 658.644 378.197C665.962 376.36 673.303 374.581 680.528 372.422C686.185 370.732 689.419 373.395 692.421 377.627C706.661 397.696 720.991 417.701 735.341 437.691C737.432 440.604 738.973 444.008 742.807 446.5C744.824 439.139 743.538 432.044 743.257 425.09C742.465 405.53 741.463 385.974 740.166 366.441C739.774 360.526 742.065 357.573 747.522 356.271C755.405 354.39 763.202 352.125 771.125 350.449C780.432 348.48 781.66 349.693 782.119 359.46C782.893 375.94 783.776 392.416 784.529 408.897C786.241 446.343 787.704 483.802 789.737 521.231C790.19 529.577 787.696 534.035 779.226 534.604C778.948 534.623 778.673 534.693 778.401 534.758C749.88 541.503 757.881 544.745 739.646 520.082C731.662 509.283 724.044 498.214 715.894 486.788Z" fill="#F8F3E3"/>
</g>
<g filter="url(#filter5_i_62_162)">
<path d="M592.904 584.766C577.17 594.928 560.62 599.809 542.383 599.037C513.702 597.822 496.544 581.309 487.186 556.071C467.728 503.59 489.627 441.258 537.305 412.636C554.272 402.45 573.001 397.614 592.823 401.381C620.371 406.615 634.737 425.719 641.379 451.244C654.143 500.293 634.331 554.505 592.904 584.766ZM531.41 544.442C543.236 558.346 563.411 559.617 578.654 547.42C600.908 529.611 609.947 487.064 597.272 461.3C592.249 451.091 584.07 446.057 573.234 446.063C560.851 446.069 549.569 449.969 540.841 459.344C520.023 481.708 515.94 516.083 531.41 544.442Z" fill="#F8F3E3"/>
</g>
<g filter="url(#filter6_i_62_162)">
<path d="M847.874 453.853C858.468 468.634 872.173 469.927 887.834 465.487C904.067 460.884 905.102 459.35 902.05 442.784C901.131 437.795 898.858 436.945 894.513 437.965C887.983 439.498 881.361 440.642 874.84 442.209C869.872 443.402 867.31 441.55 866.897 436.637C866.124 427.446 865.484 418.243 864.753 409.048C864.364 404.145 867.268 401.928 871.446 400.839C891.474 395.619 911.506 390.414 931.552 385.266C936.99 383.869 939.212 386.266 939.432 391.742C940.501 418.289 941.727 444.83 942.974 471.369C943.113 474.315 942.831 476.816 940.369 478.886C917.741 497.901 892.855 511.399 862.285 511.235C835.421 511.092 815.787 497.565 805.378 471.983C786.663 425.982 803.241 363.861 842.964 337.077C868.415 319.916 896.55 311.739 927.366 322.502C929.473 323.237 931.573 324.065 933.544 325.101C942.965 330.055 943.451 332.297 936.917 340.866C930.811 348.874 924.512 356.736 918.517 364.825C916.206 367.942 913.809 369.151 909.963 367.903C888.373 360.896 868.445 363.894 853.143 381.185C836.819 399.632 835.701 421.583 843.227 444.301C844.27 447.45 846.057 450.353 847.874 453.853Z" fill="#F8F3E3"/>
</g>
<g filter="url(#filter7_i_62_162)">
<path d="M340.578 604.781C338.917 562.066 337.451 520.172 335.467 478.303C335.076 470.053 337.742 466.256 345.779 464.283C367.215 459.019 388.468 453.015 409.797 447.313C416.303 445.573 422.898 444.576 429.661 444.479C452.639 444.149 467.463 456.925 470.942 479.879C475.976 513.092 467.231 541.271 440.962 563.161C435.281 567.894 428.607 570.822 421.605 572.909C413.037 575.462 404.402 577.802 395.752 580.062C382.107 583.627 382.274 583.559 382.836 597.775C383.354 610.905 383.055 624.076 383.843 637.185C384.239 643.782 381.366 646.045 375.621 647.211C367.137 648.933 358.685 650.915 350.358 653.275C344.739 654.867 342.578 653.09 342.38 647.49C341.886 633.527 341.201 619.57 340.578 604.781ZM394.212 494.39C388.754 497.161 379.648 495.199 379.572 505.015C379.499 514.492 379.883 523.976 380.229 533.451C380.388 537.795 382.276 540.249 387.212 539.001C395.579 536.886 404.149 535.544 412.197 532.244C425.931 526.612 433.11 514.19 431.133 499.449C429.998 490.981 425.063 487.246 416.665 488.978C409.574 490.44 402.578 492.367 394.212 494.39Z" fill="#F8F3E3"/>
</g>
<path d="M547.486 193.955C569.221 153.189 599.173 121.136 638.997 98.6519C649.723 92.5962 651.302 93.5019 651.336 105.7C651.369 117.418 652.913 129.036 651.894 140.86C649.477 168.902 636.143 190.454 614.682 207.71C600.637 219.003 587.442 230.936 581.489 248.86C578.806 256.937 577.345 265.059 577.73 273.546C579.007 301.731 580.129 329.924 581.627 358.097C581.886 362.967 579.56 364.659 575.725 365.671C563.835 368.809 551.91 371.82 540.041 375.035C534.43 376.556 531.713 375.108 531.419 368.853C529.621 330.578 526.979 292.303 528.408 253.978C529.203 232.655 536.721 212.999 547.486 193.955Z" fill="#E1AF37"/>
<path d="M279.404 613.568C290.685 620.773 294.53 630.973 294.474 643.249C294.385 662.716 279.917 683.43 261.654 689.903C243.739 696.252 228.075 686.542 224.895 667.116C220.741 641.741 240.314 615.056 265.747 611.501C270.233 610.874 274.688 611.04 279.404 613.568Z" fill="#BC032C"/>
<path d="M288.85 362.66C307.024 357.754 324.511 352.922 342.062 348.335C352.03 345.73 352.99 346.726 353.347 357.229C353.602 364.755 354.071 372.28 354.696 379.784C355.113 384.797 353.285 387.448 348.228 388.7C329.266 393.394 310.353 398.296 291.483 403.351C284.11 405.327 281.287 403.151 281.564 395.354C281.822 388.135 281.027 380.858 280.39 373.633C279.858 367.6 282.203 363.99 288.85 362.66Z" fill="#F8F3E3"/>
<defs>
<filter id="filter0_i_62_162" x="607" y="0" width="336.194" height="358.449" filterUnits="userSpaceOnUse" color-interpolation-filters="sRGB">
<feFlood flood-opacity="0" result="BackgroundImageFix"/>
<feBlend mode="normal" in="SourceGraphic" in2="BackgroundImageFix" result="shape"/>
<feColorMatrix in="SourceAlpha" type="matrix" values="0 0 0 0 0 0 0 0 0 0 0 0 0 0 0 0 0 0 127 0" result="hardAlpha"/>
<feOffset dx="-5" dy="8"/>
<feGaussianBlur stdDeviation="23"/>
<feComposite in2="hardAlpha" operator="arithmetic" k2="-1" k3="1"/>
<feColorMatrix type="matrix" values="0 0 0 0 0 0 0 0 0 0 0 0 0 0 0 0 0 0 0.25 0"/>
<feBlend mode="normal" in2="shape" result="effect1_innerShadow_62_162"/>
</filter>
<filter id="filter1_i_62_162" x="153" y="113" width="410.458" height="196.834" filterUnits="userSpaceOnUse" color-interpolation-filters="sRGB">
<feFlood flood-opacity="0" result="BackgroundImageFix"/>
<feBlend mode="normal" in="SourceGraphic" in2="BackgroundImageFix" result="shape"/>
<feColorMatrix in="SourceAlpha" type="matrix" values="0 0 0 0 0 0 0 0 0 0 0 0 0 0 0 0 0 0 127 0" result="hardAlpha"/>
<feOffset dy="4"/>
<feGaussianBlur stdDeviation="2"/>
<feComposite in2="hardAlpha" operator="arithmetic" k2="-1" k3="1"/>
<feColorMatrix type="matrix" values="0 0 0 0 0 0 0 0 0 0 0 0 0 0 0 0 0 0 0.25 0"/>
<feBlend mode="normal" in2="shape" result="effect1_innerShadow_62_162"/>
</filter>
<filter id="filter2_i_62_162" x="106.601" y="477.311" width="211.767" height="253.1" filterUnits="userSpaceOnUse" color-interpolation-filters="sRGB">
<feFlood flood-opacity="0" result="BackgroundImageFix"/>
<feBlend mode="normal" in="SourceGraphic" in2="BackgroundImageFix" result="shape"/>
<feColorMatrix in="SourceAlpha" type="matrix" values="0 0 0 0 0 0 0 0 0 0 0 0 0 0 0 0 0 0 127 0" result="hardAlpha"/>
<feOffset dy="4"/>
<feGaussianBlur stdDeviation="2"/>
<feComposite in2="hardAlpha" operator="arithmetic" k2="-1" k3="1"/>
<feColorMatrix type="matrix" values="0 0 0 0 0 0 0 0 0 0 0 0 0 0 0 0 0 0 0.25 0"/>
<feBlend mode="normal" in2="shape" result="effect1_innerShadow_62_162"/>
</filter>
<filter id="filter3_i_62_162" x="0" y="272.58" width="272.043" height="268.586" filterUnits="userSpaceOnUse" color-interpolation-filters="sRGB">
<feFlood flood-opacity="0" result="BackgroundImageFix"/>
<feBlend mode="normal" in="SourceGraphic" in2="BackgroundImageFix" result="shape"/>
<feColorMatrix in="SourceAlpha" type="matrix" values="0 0 0 0 0 0 0 0 0 0 0 0 0 0 0 0 0 0 127 0" result="hardAlpha"/>
<feOffset dy="4"/>
<feGaussianBlur stdDeviation="2"/>
<feComposite in2="hardAlpha" operator="arithmetic" k2="-1" k3="1"/>
<feColorMatrix type="matrix" values="0 0 0 0 0 0 0 0 0 0 0 0 0 0 0 0 0 0 0.25 0"/>
<feBlend mode="normal" in2="shape" result="effect1_innerShadow_62_162"/>
</filter>
<filter id="filter4_i_62_162" x="651.7" y="349.652" width="138.087" height="219.75" filterUnits="userSpaceOnUse" color-interpolation-filters="sRGB">
<feFlood flood-opacity="0" result="BackgroundImageFix"/>
<feBlend mode="normal" in="SourceGraphic" in2="BackgroundImageFix" result="shape"/>
<feColorMatrix in="SourceAlpha" type="matrix" values="0 0 0 0 0 0 0 0 0 0 0 0 0 0 0 0 0 0 127 0" result="hardAlpha"/>
<feOffset dy="4"/>
<feGaussianBlur stdDeviation="2"/>
<feComposite in2="hardAlpha" operator="arithmetic" k2="-1" k3="1"/>
<feColorMatrix type="matrix" values="0 0 0 0 0 0 0 0 0 0 0 0 0 0 0 0 0 0 0.25 0"/>
<feBlend mode="normal" in2="shape" result="effect1_innerShadow_62_162"/>
</filter>
<filter id="filter5_i_62_162" x="480.102" y="400.107" width="165.115" height="203.008" filterUnits="userSpaceOnUse" color-interpolation-filters="sRGB">
<feFlood flood-opacity="0" result="BackgroundImageFix"/>
<feBlend mode="normal" in="SourceGraphic" in2="BackgroundImageFix" result="shape"/>
<feColorMatrix in="SourceAlpha" type="matrix" values="0 0 0 0 0 0 0 0 0 0 0 0 0 0 0 0 0 0 127 0" result="hardAlpha"/>
<feOffset dy="4"/>
<feGaussianBlur stdDeviation="2"/>
<feComposite in2="hardAlpha" operator="arithmetic" k2="-1" k3="1"/>
<feColorMatrix type="matrix" values="0 0 0 0 0 0 0 0 0 0 0 0 0 0 0 0 0 0 0.25 0"/>
<feBlend mode="normal" in2="shape" result="effect1_innerShadow_62_162"/>
</filter>
<filter id="filter6_i_62_162" x="797.691" y="317.656" width="145.312" height="197.58" filterUnits="userSpaceOnUse" color-interpolation-filters="sRGB">
<feFlood flood-opacity="0" result="BackgroundImageFix"/>
<feBlend mode="normal" in="SourceGraphic" in2="BackgroundImageFix" result="shape"/>
<feColorMatrix in="SourceAlpha" type="matrix" values="0 0 0 0 0 0 0 0 0 0 0 0 0 0 0 0 0 0 127 0" result="hardAlpha"/>
<feOffset dy="4"/>
<feGaussianBlur stdDeviation="2"/>
<feComposite in2="hardAlpha" operator="arithmetic" k2="-1" k3="1"/>
<feColorMatrix type="matrix" values="0 0 0 0 0 0 0 0 0 0 0 0 0 0 0 0 0 0 0.25 0"/>
<feBlend mode="normal" in2="shape" result="effect1_innerShadow_62_162"/>
</filter>
<filter id="filter7_i_62_162" x="335.43" y="444.473" width="136.869" height="213.361" filterUnits="userSpaceOnUse" color-interpolation-filters="sRGB">
<feFlood flood-opacity="0" result="BackgroundImageFix"/>
<feBlend mode="normal" in="SourceGraphic" in2="BackgroundImageFix" result="shape"/>
<feColorMatrix in="SourceAlpha" type="matrix" values="0 0 0 0 0 0 0 0 0 0 0 0 0 0 0 0 0 0 127 0" result="hardAlpha"/>
<feOffset dy="4"/>
<feGaussianBlur stdDeviation="2"/>
<feComposite in2="hardAlpha" operator="arithmetic" k2="-1" k3="1"/>
<feColorMatrix type="matrix" values="0 0 0 0 0 0 0 0 0 0 0 0 0 0 0 0 0 0 0.25 0"/>
<feBlend mode="normal" in2="shape" result="effect1_innerShadow_62_162"/>
</filter>
</defs>
</svg>
