<svg xmlns="http://www.w3.org/2000/svg" width="31" height="30" fill="none" viewBox="0 0 31 30">
  <path fill="#231A15" d="M19.652 28.347c-.22 0-.44-.013-.66-.039a.583.583 0 0 1-.208-.01l-3.592-.838a.576.576 0 0 1-.15-.057 5.952 5.952 0 0 1-2.2-1.31 6.92 6.92 0 0 1-.422-.425l-.01-.01a6.717 6.717 0 0 1-.172-.197l-.038-.045a8.766 8.766 0 0 1-1.067-1.655c-.13-.26-.25-.529-.357-.8l-.001-.004a7.553 7.553 0 0 1-.086-.226l-.004-.01a10.894 10.894 0 0 1-.079-.221l-.005-.016a8.076 8.076 0 0 1-.073-.22l-.009-.025a11.07 11.07 0 0 1-.065-.213l-.033-.112-.036-.13-.026-.098-.022-.083-1.149.002h-.001a.583.583 0 0 1-.148-.019 5.093 5.093 0 0 1-2.079-.658 6.022 6.022 0 0 1-.433-.27l-.013-.009a6.333 6.333 0 0 1-.179-.128l-.04-.03a7.274 7.274 0 0 1-1.205-1.16l-.002-.003a9.186 9.186 0 0 1-.935-1.372l-.006-.01-.083-.152-.014-.025a8.527 8.527 0 0 1-.076-.144l-.017-.034a10.134 10.134 0 0 1-.071-.143l-.018-.036a16.57 16.57 0 0 1-.069-.145l-.016-.034-.069-.151-.01-.024a12.852 12.852 0 0 1-.97-3.52 11.362 11.362 0 0 1-.033-.266l-.003-.026c-.01-.08-.017-.16-.025-.241l-.004-.044a16.025 16.025 0 0 1-.02-.23l-.003-.048a13.403 13.403 0 0 1-.017-.268v-.006a15.24 15.24 0 0 1 .003-1.635l.015-.225v-.011l.017-.214.001-.012.021-.213.001-.013v-.007c.008-.068.015-.137.024-.205l.001-.014c.027-.22.058-.435.093-.64.347-2.06 1.117-3.867 2.226-5.23 1.144-1.404 2.54-2.203 4.042-2.316a.571.571 0 0 1 .127-.015l3.053-.004a.55.55 0 0 1 .194.033c1.769.204 3.41 1.398 4.577 3.32.257-.11.517-.206.777-.283a5.942 5.942 0 0 1 2.654-.198c.044 0 .09.005.136.015l3.542.827a.574.574 0 0 1 .191.083c1.92.685 3.436 2.394 4.28 4.83.844 2.434.935 5.374.256 8.28-.677 2.906-2.06 5.502-3.895 7.31-1.634 1.615-3.494 2.475-5.313 2.475Zm-.73-1.224a.61.61 0 0 1 .084.005c.213.03.428.046.643.046 1.51 0 3.084-.743 4.497-2.137 1.679-1.655 2.949-4.05 3.577-6.743.628-2.693.55-5.403-.222-7.63-.743-2.143-2.051-3.617-3.684-4.15a.62.62 0 0 1-.092-.039l-3.303-.77a.529.529 0 0 1-.068-.009 4.762 4.762 0 0 0-2.213.15 6.204 6.204 0 0 0-1.082.444.586.586 0 0 1-.789-.244c-1.016-1.905-2.497-3.074-4.063-3.207a.527.527 0 0 1-.087-.014l-2.826.004a.642.642 0 0 1-.06.006c-2.474.14-4.641 2.842-5.27 6.572-.033.194-.061.39-.085.59l-.001.01v.006a9.211 9.211 0 0 0-.022.188l-.001.013v.005l-.02.193v.014c-.006.066-.012.132-.016.198l-.001.01a13.365 13.365 0 0 0 0 1.963l.004.044c.005.072.01.143.017.213l.004.04.023.222.003.024.03.245c.152 1.148.448 2.224.88 3.198l.009.021c.02.046.04.091.062.136l.013.029.062.13.016.033.064.128.015.03.067.127.012.024.073.132.005.01c.246.438.52.84.815 1.196l.004.004.098.116a6.115 6.115 0 0 0 .91.858l.033.024c.05.037.098.072.148.106l.01.007c.113.078.229.15.346.216.542.307 1.11.48 1.686.517a.521.521 0 0 1 .068.008l1.507-.002h.002c.275 0 .513.192.572.461l.03.135.037.152.002.005.006.026.002.007.008.034.035.134.024.089.033.117.03.1.058.192.008.022c.02.066.042.13.065.196l.005.016.071.198.004.01c.025.067.05.135.077.202l.001.003c.095.24.2.478.314.705a7.587 7.587 0 0 0 .92 1.43l.032.037c.05.059.098.115.145.166l.008.01c.112.122.23.24.35.352a4.79 4.79 0 0 0 1.86 1.085.73.73 0 0 1 .073.027l3.335.779h.013Z"/>
  <path fill="#A58E07" d="m23.999 5.957.004-.018-3.542-.827c-.155.237-.324.464-.475.705-.176.279-.543.191-.663-.023l-.222.953c-2.392 1.505-4.44 4.528-5.319 8.294-.879 3.767-.38 7.383 1.098 9.792l-.302 1.292c.104-.075.2-.147.261-.216.246-.276.705-.011.624.336-.05.214-.097.429-.137.644l3.592.839.005-.019c3.887.56 8.017-3.477 9.371-9.28C29.65 12.624 27.732 7.174 24 5.956Z"/>
  <path fill="#FFE000" d="m14.021 25.982-.013.01.004-.018.01.008Zm.78.55-.005.02.07.017-.065-.037ZM25.168 8.551l1.712.4a7.92 7.92 0 0 0-.75-1.162l-1.712-.4c.276.353.526.742.75 1.162Zm2.388 2.007a10.224 10.224 0 0 0-.508-1.28l-1.712-.399c.194.402.364.83.508 1.28l1.712.399Zm.507 2.381a12.643 12.643 0 0 0-.393-2.006l-1.711-.4c.18.633.312 1.305.393 2.007l1.711.4Zm.084 2.225c.021-.598.009-1.182-.037-1.75l-1.712-.4c.046.568.059 1.153.036 1.75l1.712.4Zm-.236 2.207c.11-.629.183-1.252.22-1.863l-1.712-.4a16.361 16.361 0 0 1-.22 1.864l1.712.4Zm-2.2 1.634 1.712.4a17.16 17.16 0 0 0 .426-1.7l-1.712-.4a16.574 16.574 0 0 1-.425 1.7Zm1.014 2.267c.206-.46.393-.94.56-1.436l-1.711-.4a16.22 16.22 0 0 1-.56 1.436l1.711.4Zm-.993 1.857c.296-.468.572-.966.823-1.49l-1.711-.4a14.689 14.689 0 0 1-.823 1.49l1.711.4Zm-1.01 1.389c.333-.398.65-.828.946-1.288l-1.712-.4a12.8 12.8 0 0 1-.945 1.288l1.712.4Zm-1.302 1.32c.41-.347.804-.74 1.18-1.175l-1.712-.4c-.375.435-.77.828-1.18 1.176l1.712.4Zm-4.177 1.056a5.753 5.753 0 0 1-1.589.326l1.71.399a5.742 5.742 0 0 0 1.59-.325l-1.71-.4Zm1.241-.58c-.374.22-.756.402-1.142.545l1.71.4a7.186 7.186 0 0 0 1.144-.546l-1.712-.4Zm1.85.316c.314-.193.622-.412.922-.655l-1.711-.4a8.69 8.69 0 0 1-.922.655l1.712.4Zm3.62-19.057a6.102 6.102 0 0 0-1.2-1.092l-1.71-.399c.437.3.838.667 1.199 1.092l1.71.4Z"/>
  <path fill="#FFE000" d="M25.44 17.763c1.404-6.017-.706-11.652-4.713-12.588-4.007-.935-8.394 3.184-9.798 9.2-1.405 6.017.705 11.653 4.712 12.589 4.007.935 8.394-3.184 9.799-9.201Z"/>
  <path fill="#fff" d="M25.178 9.744c.381 1.077.614 2.29.678 3.583l-14.108 10.35c-.492-.936-.85-2.022-1.054-3.209L25.178 9.744Zm.657 5.407L12.488 24.84c.233.301.484.577.753.824l12.497-9.537c.042-.327.075-.652.097-.975Zm-2.86 8.149a14.4 14.4 0 0 0 1.484-2.598l-8.143 6.37a5.392 5.392 0 0 0 1.933-.177l4.726-3.595ZM10.75 15.235c-.077.432-.136.86-.179 1.285l12.991-9.603a6.281 6.281 0 0 0-.58-.572l-12.232 8.89Zm1.035-3.512c-.26.616-.486 1.266-.675 1.942l10.865-8.018a5.076 5.076 0 0 0-1.151-.448l-9.04 6.524Z" opacity=".64"/>
  <path fill="#A58E07" d="M24.047 17.437c1.134-4.86-.57-9.414-3.808-10.17-3.238-.756-6.782 2.572-7.917 7.434-1.135 4.86.57 9.414 3.808 10.17 3.237.756 6.782-2.573 7.917-7.434Z"/>
  <path fill="#FFE000" d="M23.91 17.405c1.05-4.505-.53-8.725-3.53-9.425-3-.7-6.285 2.384-7.336 6.889-1.052 4.505.528 8.725 3.528 9.425 3 .7 6.285-2.384 7.337-6.89Z"/>
  <path fill="#fff" d="m23.91 17.405-.036.144-8.316 6.346a4.249 4.249 0 0 1-.867-.654l9.409-6.83c-.05.33-.113.661-.19.994Zm-11.117 1.51c.147 1.23.505 2.338 1.04 3.231l10.401-7.629c-.014-1.316-.257-2.535-.693-3.56l-10.748 7.957Zm1.878-7.876 4.208-3.106c-1.55.25-3.066 1.391-4.208 3.106Zm-1.11 2.155c-.18.465-.337.953-.464 1.46l8.405-6.213a3.826 3.826 0 0 0-.864-.39l-7.078 5.143Z" opacity=".38"/>
  <path fill="#A58E07" d="M20.703 18.246c.247-1.063-.087-2.029-1.695-3.047l-.072-.044.74-3.171c.192.053.396.129.612.234l-.007.75c-.002.71.28.968.565 1.035a.604.604 0 0 0 .663-.27c.169-1.045-.547-1.993-1.687-2.373l.275-1.181-.518-.121-.274 1.174c-1.398-.223-2.602.548-2.895 1.803-.302 1.296.337 2.184 1.587 2.981l.154.099-.748 3.205a4.944 4.944 0 0 1-.905-.325l.007-.744c.005-.723-.24-.959-.552-1.03-.285-.068-.5.032-.677.264-.208 1.123.633 2.118 1.982 2.457l-.309 1.323.519.122.314-1.346c1.526.192 2.625-.532 2.92-1.795Zm-3.218-5.248c.198-.845.867-1.187 1.668-1.115l-.693 2.972c-.786-.497-1.161-1.06-.975-1.857Zm.443 6.418.7-2.995c.867.588 1.184 1.072 1.006 1.836-.195.836-.84 1.235-1.706 1.159Z"/>
  <path fill="#5D5004" d="M15.712 20.801c1.927-1.863 3.564-4.25 4.16-6.89.527-2.33.421-5.044-.78-7.16-2.388 1.507-4.432 4.527-5.31 8.29-.607 2.595-.558 5.12.014 7.227.731-.374 1.396-.964 1.916-1.467Zm5.15-8.209-.021-.086c-.012.112-.023.225-.037.337.021-.037.044-.073.067-.11a5.928 5.928 0 0 1-.01-.141Z"/>
  <path fill="#B7A100" d="m11.644 22.809.022.004c.078-.16.251-.22.428-.195 1.369.202 2.712-.941 3.618-1.817 1.927-1.863 3.563-4.25 4.16-6.89.66-2.915.33-6.437-1.9-8.627-3.095.928-5.959 4.443-7.043 9.091-.72 3.084-.517 6.068.393 8.37.115-.03.231 0 .322.064Zm9.218-10.217-.021-.086c-.012.112-.023.225-.037.337.021-.037.044-.073.067-.11a5.928 5.928 0 0 1-.01-.141Z"/>
  <path fill="#fff" d="m18.968 6.54-7.182 5.182c-.26.617-.486 1.267-.675 1.943L19.464 7.5a7.391 7.391 0 0 0-.496-.962Zm.88 2.084-9.097 6.611c-.077.432-.136.86-.179 1.285l9.467-6.998a9.486 9.486 0 0 0-.191-.898Zm-9.155 11.844c.14.812.352 1.576.629 2.277a.39.39 0 0 1 .322.064l.022.004c.077-.16.25-.22.427-.195.461.068.92-.017 1.359-.193l2.392-1.755c1.869-1.843 3.444-4.18 4.028-6.76.02-.093.041-.188.06-.283l-9.239 6.841Z"/>
  <path fill="#5D5004" d="M15.712 20.801c1.927-1.863 3.564-4.25 4.16-6.89.494-2.182.433-4.703-.563-6.752-2.96-.002-5.96 3.142-6.987 7.541-.7 3-.319 5.882.837 7.828.979-.29 1.885-1.081 2.553-1.727Zm5.15-8.209-.021-.086c-.012.112-.023.225-.037.337.021-.037.044-.073.067-.11a5.928 5.928 0 0 1-.01-.141Z"/>
  <path fill="#B7A100" d="m20.862 12.592-.021-.086c-.012.112-.023.225-.037.337.021-.037.044-.073.067-.11a5.928 5.928 0 0 1-.01-.141Zm-5.15 8.208c1.927-1.862 3.564-4.25 4.16-6.89.437-1.93.44-4.128-.257-6.028-2.774-.071-5.608 2.862-6.57 6.986-.662 2.833-.283 5.553.836 7.356.697-.375 1.33-.94 1.83-1.423Z"/>
  <path fill="#fff" d="m14.67 11.039 4.21-3.106c-1.552.25-3.067 1.391-4.21 3.106Zm5.178-2.415-6.288 4.57c-.18.466-.337.953-.464 1.46l6.943-5.132a9.46 9.46 0 0 0-.192-.898ZM15.845 20.67c1.87-1.843 3.445-4.18 4.028-6.759.02-.093.041-.188.06-.283l-7.14 5.286c.147 1.231.505 2.34 1.04 3.232l2.012-1.475Z" opacity=".38"/>
  <path fill="#5D5004" d="m17.997 16.016.155.098-.613 2.626c.297-.394.576-.803.833-1.224l.255-1.095c.092.062.176.123.256.182.19-.372.362-.754.513-1.142a7.509 7.509 0 0 0-.387-.263l-.072-.044.74-3.171c.147.04.301.095.462.165.017-.216.028-.432.032-.65a3.149 3.149 0 0 0-.348-.14l.276-1.18-.519-.122-.274 1.175c-1.398-.224-2.602.547-2.895 1.803-.303 1.297.337 2.184 1.586 2.982Zm-.512-3.017c.198-.846.866-1.188 1.669-1.116l-.694 2.973c-.785-.498-1.16-1.06-.975-1.857Zm3.376-.407-.021-.086c-.011.114-.024.227-.038.34.022-.038.044-.075.068-.112l-.009-.142Zm-4.151 7.164c.148-.167.292-.337.433-.51a4.84 4.84 0 0 1-.644-.252l.007-.744c.005-.723-.24-.958-.552-1.03-.285-.067-.5.033-.677.265-.179.96.413 1.828 1.433 2.271Z"/>
  <path fill="#A58E07" d="M12.256 2.256v-.017l-3.052.005c-.081.223-.176.442-.253.667-.09.261-.407.26-.546.108l.002.822C6.74 5.53 5.649 8.392 5.653 11.638c.005 3.245 1.107 6.105 2.777 7.788l.001 1.114c.07-.082.135-.159.173-.227.147-.272.573-.145.574.155 0 .184.002.369.01.553l3.096-.005V21c3.283-.288 5.882-4.38 5.875-9.381-.007-5.002-2.619-9.084-5.903-9.363Z"/>
  <path fill="#FFE000" d="m7.948 20.53-.009.01v-.014a.063.063 0 0 1 .01.004Zm.743.3v.018h.06l-.06-.018ZM13.71 4.15l1.474-.002c-.263-.3-.542-.57-.836-.806l-1.474.003c.294.235.572.505.836.805Zm2.336 1.182a8.415 8.415 0 0 0-.661-.948l-1.475.003c.236.29.456.608.66.947l1.476-.002Zm.872 1.848a10.624 10.624 0 0 0-.707-1.564l-1.475.002c.27.482.506 1.006.707 1.564l1.475-.002Zm.495 1.801a12.69 12.69 0 0 0-.366-1.422l-1.475.002c.146.455.269.93.365 1.422l1.476-.002Zm.23 1.849a13.59 13.59 0 0 0-.178-1.565l-1.475.002c.087.507.147 1.03.178 1.565l1.476-.002Zm-1.482 1.756 1.476-.002a14.128 14.128 0 0 0 .02-1.47l-1.475.002a14.341 14.341 0 0 1-.02 1.47Zm1.263 1.658c.08-.416.141-.843.182-1.28l-1.475.002a13.69 13.69 0 0 1-.182 1.28l1.475-.002Zm-.455 1.707c.152-.44.281-.899.386-1.376l-1.475.003a12.12 12.12 0 0 1-.386 1.376l1.475-.003Zm-.558 1.33c.195-.39.372-.802.525-1.234l-1.474.002a10.7 10.7 0 0 1-.526 1.233l1.475-.002Zm-.81 1.328c.268-.363.514-.76.738-1.186l-1.475.002c-.223.427-.47.824-.738 1.186l1.474-.002Zm-3.21 1.664a4.804 4.804 0 0 1-1.236.57l1.473-.002c.43-.126.844-.319 1.237-.57l-1.474.002Zm.902-.712a6.03 6.03 0 0 1-.829.665l1.475-.003a5.95 5.95 0 0 0 .829-.665l-1.475.003Zm1.573-.098c.219-.218.429-.456.627-.712l-1.475.003a7.271 7.271 0 0 1-.627.712l1.475-.003Zm-.702-16.262a5.113 5.113 0 0 0-1.19-.662L11.5 2.54c.415.16.812.384 1.188.662l1.475-.002Z"/>
  <path fill="#FFE000" d="M9.461 21.02c3.453-.005 6.246-4.212 6.239-9.397-.008-5.185-2.814-9.385-6.267-9.38-3.453.006-6.246 4.213-6.238 9.398.007 5.185 2.813 9.385 6.266 9.38Z"/>
  <path fill="#fff" d="M13.948 5.123a10.64 10.64 0 0 1 1.241 2.797L5.65 19.083c-.58-.67-1.082-1.489-1.477-2.418l9.776-11.542Zm1.575 4.291L6.478 19.891c.248.201.506.378.773.529l8.379-10.19a13.98 13.98 0 0 0-.107-.816Zm-.773 7.206c.309-.74.551-1.548.713-2.407l-5.429 6.768a4.523 4.523 0 0 0 1.545-.516l3.17-3.845ZM3.216 12.378c.019.368.053.73.1 1.084l8.77-10.339a5.302 5.302 0 0 0-.584-.356l-8.286 9.611Zm.17-3.068a13.842 13.842 0 0 0-.178 1.717l7.337-8.637a4.28 4.28 0 0 0-1.026-.145L3.386 9.31Z" opacity=".64"/>
  <path fill="#A58E07" d="M9.458 19.218c2.79-.004 5.047-3.404 5.041-7.593-.006-4.19-2.273-7.583-5.063-7.578-2.79.004-5.047 3.403-5.04 7.593.005 4.19 2.272 7.582 5.062 7.578Z"/>
  <path fill="#FFE000" d="M9.71 18.661c2.585-.004 4.676-3.154 4.67-7.036-.005-3.882-2.106-7.026-4.692-7.023-2.585.004-4.676 3.155-4.67 7.037.005 3.882 2.106 7.026 4.691 7.022Z"/>
  <path fill="#fff" d="M14.38 11.625v.124l-5.576 6.782a3.585 3.585 0 0 1-.834-.369l6.375-7.385c.023.278.035.56.036.848Zm-8.79 3.367c.355.977.861 1.814 1.47 2.44l7.033-8.228c-.264-1.073-.697-2.022-1.25-2.776L5.59 14.992Zm.022-6.794 2.842-3.345c-1.219.502-2.239 1.724-2.842 3.345Zm-.493 1.973a10.49 10.49 0 0 0-.1 1.282l5.675-6.69a3.255 3.255 0 0 0-.78-.153l-4.797 5.56Z" opacity=".38"/>
  <path fill="#A58E07" d="M11.923 12.928c-.001-.916-.46-1.641-1.97-2.164l-.066-.023-.004-2.733c.166.007.348.03.543.075l.139.614c.134.58.414.736.66.736a.508.508 0 0 0 .491-.347c-.063-.887-.83-1.524-1.834-1.616L9.88 6.452h-.447l.002 1.013c-1.185.085-2.02.947-2.019 2.029.002 1.117.695 1.719 1.869 2.13l.145.051.004 2.762a4.15 4.15 0 0 1-.802-.092l-.137-.609c-.135-.591-.38-.736-.65-.736-.245 0-.401.124-.501.347.045.956.924 1.608 2.091 1.626l.002 1.14h.447l-.002-1.16c1.283-.134 2.042-.936 2.04-2.025Zm-3.636-3.67c-.001-.728.48-1.137 1.149-1.231l.004 2.561c-.737-.256-1.152-.642-1.153-1.33Zm1.594 5.158-.004-2.581c.822.313 1.173.648 1.175 1.306 0 .72-.449 1.17-1.171 1.275Z"/>
</svg>
