<svg xmlns="http://www.w3.org/2000/svg" width="29" height="29" fill="none" viewBox="0 0 29 29">
  <circle cx="14.5" cy="14.5" r="14.5" fill="#fff"/>
  <path fill="#D6192E" d="M14.5.063C6.56.063.062 6.559.062 14.5c0 7.94 6.497 14.438 14.438 14.438 7.94 0 14.438-6.497 14.438-14.438C28.938 6.56 22.44.062 14.5.062Zm2.784 18.871a.997.997 0 0 1 0 1.444c-.206.206-.412.31-.721.31-.31 0-.516-.104-.722-.31l-5.157-5.156a.997.997 0 0 1 0-1.444l5.157-5.156a.997.997 0 0 1 1.443 0 .997.997 0 0 1 0 1.444L12.85 14.5l4.434 4.434Z"/>
</svg>
