<svg width="26" height="30" viewBox="0 0 26 30" fill="none" xmlns="http://www.w3.org/2000/svg">
<path d="M21 26C21.5523 26 22 25.5523 22 25C22 24.4477 21.5523 24 21 24C20.4477 24 20 24.4477 20 25C20 25.5523 20.4477 26 21 26Z" fill="#F8F3E3"/>
<path d="M11 10C13.7614 10 16 7.76142 16 5C16 2.23858 13.7614 0 11 0C8.23858 0 6 2.23858 6 5C6 7.76142 8.23858 10 11 10Z" fill="#F8F3E3"/>
<path d="M22 20.1V19C22 17.1435 21.2625 15.363 19.9498 14.0503C18.637 12.7375 16.8565 12 15 12H7C5.14349 12 3.36301 12.7375 2.05026 14.0503C0.737501 15.363 3.06928e-06 17.1435 3.06928e-06 19V25C-0.00041339 25.1681 0.0415574 25.3336 0.122036 25.4812C0.202514 25.6288 0.318902 25.7537 0.460442 25.8444C0.601981 25.9351 0.764103 25.9887 0.931821 26.0002C1.09954 26.0116 1.26744 25.9806 1.42 25.91C1.48 25.88 7.69 23 11 23C12.7433 23.1158 14.4591 23.4934 16.09 24.12C16.0333 24.41 16.0032 24.7045 16 25C16.0002 25.946 16.2688 26.8726 16.7745 27.6721C17.2803 28.4716 18.0025 29.1112 18.8573 29.5166C19.712 29.922 20.6643 30.0766 21.6034 29.9624C22.5425 29.8483 23.4299 29.47 24.1627 28.8716C24.8954 28.2732 25.4433 27.4793 25.7428 26.5819C26.0423 25.6845 26.0811 24.7206 25.8546 23.8021C25.6282 22.8835 25.1458 22.0481 24.4635 21.3928C23.7811 20.7375 22.9269 20.2892 22 20.1ZM21 28C20.2044 28 19.4413 27.6839 18.8787 27.1213C18.3161 26.5587 18 25.7956 18 25C18.0009 24.6076 18.0826 24.2195 18.24 23.86C18.4468 23.3566 18.7867 22.9189 19.2233 22.5938C19.6598 22.2688 20.1765 22.0686 20.7181 22.0148C21.2597 21.9609 21.8058 22.0554 22.2978 22.2881C22.7898 22.5209 23.2092 22.8831 23.5111 23.3359C23.813 23.7888 23.986 24.3153 24.0116 24.8589C24.0372 25.4026 23.9144 25.943 23.6564 26.4222C23.3984 26.9014 23.0149 27.3014 22.547 27.5794C22.079 27.8573 21.5443 28.0027 21 28Z" fill="#F8F3E3"/>
</svg>
