<svg width="24" height="24" viewBox="0 0 24 24" fill="none" xmlns="http://www.w3.org/2000/svg">
<path d="M13.5557 0C10.7832 0 8.12436 1.1011 6.16395 3.06108C4.20355 5.02106 3.1022 7.67935 3.1022 10.4512V14.8755L1.24767 16.7296C0.448801 17.5283 -8.41749e-09 18.6116 0 19.7411C8.41749e-09 20.8706 0.448802 21.9539 1.24767 22.7526C2.04655 23.5513 3.13005 24 4.25983 24C5.3896 24 6.47311 23.5513 7.27198 22.7526L9.12263 20.9024H11.2327L11.3372 21.123C11.8288 22.1518 12.6554 22.9832 13.6814 23.4809C14.7074 23.9787 15.8721 24.1134 16.9846 23.8628C18.0972 23.6123 19.0917 22.9914 19.8052 22.102C20.5186 21.2125 20.9089 20.1071 20.9118 18.967C20.9105 18.6971 20.8872 18.4279 20.8422 18.1618L20.8112 17.9683L20.9506 17.8289C22.4085 16.3665 23.4004 14.505 23.8012 12.4795C24.2021 10.454 23.9938 8.35516 23.2027 6.44787C22.4116 4.54057 21.0732 2.91028 19.3563 1.76274C17.6393 0.615193 15.6209 0.00181262 13.5557 0ZM11.2327 17.0625C11.0787 17.4428 10.9721 17.8407 10.9152 18.247L10.8455 18.5799H8.13536L5.60329 21.1114C5.42472 21.2962 5.21111 21.4437 4.97493 21.5451C4.73875 21.6465 4.48473 21.6999 4.22769 21.7022C3.97066 21.7044 3.71575 21.6554 3.47784 21.5581C3.23993 21.4608 3.02379 21.3171 2.84203 21.1354C2.66027 20.9536 2.51653 20.7376 2.4192 20.4997C2.32186 20.2618 2.27288 20.007 2.27512 19.75C2.27735 19.493 2.33075 19.2391 2.43221 19.0029C2.53366 18.7668 2.68114 18.5533 2.86603 18.3747L5.4252 15.8355V10.9312L11.3179 16.8264L11.2327 17.0625ZM15.8787 21.6765C15.3427 21.6765 14.8187 21.5176 14.373 21.2199C13.9273 20.9221 13.5799 20.499 13.3748 20.0039C13.1697 19.5088 13.116 18.9639 13.2206 18.4383C13.3252 17.9127 13.5833 17.4299 13.9623 17.051C14.3413 16.6721 14.8242 16.414 15.35 16.3095C15.8757 16.2049 16.4206 16.2586 16.9158 16.4636C17.411 16.6687 17.8343 17.016 18.1321 17.4616C18.4299 17.9072 18.5888 18.4311 18.5888 18.967C18.5888 19.6856 18.3033 20.3748 17.7951 20.8829C17.2868 21.391 16.5975 21.6765 15.8787 21.6765ZM20.0175 15.371L19.7503 15.7232L19.4367 15.4097C18.6071 14.5808 17.514 14.0677 16.3462 13.9589C15.1785 13.85 14.0093 14.1523 13.0408 14.8136L12.7736 14.9955L5.80462 8.02805L5.88592 7.79968C6.52138 5.99341 7.7742 4.46939 9.42356 3.49624C11.0729 2.52309 13.013 2.16329 14.9017 2.48024C16.7904 2.7972 18.5066 3.77057 19.7478 5.22879C20.989 6.68701 21.6754 8.53647 21.6862 10.4512C21.6904 12.2306 21.1035 13.9611 20.0175 15.371Z" fill="#333333"/>
</svg>
