<svg width="291" height="292" viewBox="0 0 291 292" fill="none" xmlns="http://www.w3.org/2000/svg">
<path fill-rule="evenodd" clip-rule="evenodd" d="M262.218 132.087C258.725 142.972 257.21 155.146 256.485 165.859C256.305 168.525 256.174 171.097 256.072 173.537C257.968 171.719 260.879 169.205 264.143 166.924C267.775 164.381 271.875 162.091 275.503 161.395L275.634 162.067C272.149 162.738 268.148 164.954 264.536 167.481C260.994 169.962 257.865 172.718 256.035 174.532C255.945 176.785 255.883 178.918 255.83 180.888C255.814 181.49 255.797 182.075 255.781 182.645C255.765 183.214 255.752 183.771 255.736 184.307L255.052 184.291C255.068 183.767 255.081 183.23 255.097 182.677V182.628C255.113 182.067 255.126 181.49 255.142 180.9C254.962 179.696 253.819 177.452 250.867 174.782C247.902 172.1 243.135 169.012 235.781 166.154L236.03 165.515C243.442 168.402 248.283 171.527 251.325 174.274C253.299 176.06 254.528 177.698 255.195 179.021C255.24 177.542 255.289 175.986 255.355 174.369C255.457 171.703 255.601 168.865 255.797 165.912C254.249 163.152 251.084 158.93 246.559 155.146C241.989 151.325 236.051 147.972 229.02 147.026L229.114 146.346C236.305 147.316 242.357 150.744 246.997 154.622C251.137 158.082 254.163 161.915 255.879 164.708C256.637 154.245 258.168 142.468 261.567 131.878L262.218 132.087Z" fill="#253036"/>
<path d="M248.231 146.003C252.892 155.483 244.251 160.025 240.369 160.709C239.89 160.721 239.419 160.725 238.948 160.717C239.132 159.218 243.952 156.405 241.737 155.577C239.82 154.865 235.361 158.243 233.37 160.025C230.217 159.296 227.297 158.047 224.64 156.47C226.577 155.262 230.246 152.502 229.427 151.134C228.608 149.767 222.703 151.703 219.853 152.842C215.201 150.655 209.938 142.129 207.887 138.141C211.433 138.747 215.553 137.915 219.853 136.965C221.56 139.635 225.254 144.775 226.347 143.952C227.445 143.132 224.98 138.407 223.612 136.142C225.434 135.765 227.269 135.438 229.083 135.249C231.024 139.062 235.172 146.413 236.266 145.319C237.633 143.952 235.922 138.325 233.87 135.155C239.353 135.602 244.423 138.255 248.231 146.003Z" fill="#A7B8D2"/>
<path d="M259.844 111.471C264.394 108.682 269.361 106.737 273.862 106C272.953 109.874 272.502 114.526 272.838 120.017C270.213 120.701 265.242 122.483 266.339 124.121C267.432 125.763 271.351 124.579 273.174 123.781C273.722 128.392 273.534 132.299 272.838 135.595C269.758 136.557 263.739 138.961 264.287 140.878C264.689 142.282 268.44 140.947 271.712 139.412C268.604 147.442 262.076 150.743 257.449 151.476C243.882 143.114 242.321 133.445 246.429 125.149C247.022 127.425 248.763 131.987 250.95 131.987C253.141 131.987 250.552 124.69 248.988 121.045C250.663 118.822 252.723 116.745 255.008 114.89C255.241 117.425 255.835 120.038 257.105 121.729C259.566 125.009 259.955 116.258 259.844 111.471Z" fill="#A7B8D2"/>
<path d="M268.953 152.504C263.044 155.612 258.986 160.784 261.775 169.257C263.54 172.828 267.225 174.507 271.464 173.659C272.147 172.59 266.676 169.941 268.388 169.257C269.756 168.708 274.428 170.51 276.595 171.476C278.45 170.264 280.305 168.573 282.066 166.353C281.038 166.873 275.567 165.154 276.251 163.446C276.799 162.078 281.865 162.647 284.33 163.102C286.697 159.248 288.774 154.281 290.272 148.057C289.113 147.999 286.869 148.048 284.117 148.347C280.698 149.322 278.986 157.631 276.595 157.291C274.678 157.017 276.705 151.885 277.962 149.355C276.255 149.736 274.514 150.215 272.831 150.817C272.147 151.054 270.78 160.71 268.953 161.394C267.487 161.939 268.343 155.694 268.953 152.504Z" fill="#A7B8D2"/>
<path d="M228.73 161.394C232.265 160.731 235.467 160.575 238.305 160.841C238.989 162.623 240.492 166.112 241.04 165.837C241.585 165.563 241.266 162.668 241.04 161.251C242.818 161.623 244.419 162.184 245.827 162.901C246.626 164.678 248.084 168.503 247.535 169.601C246.851 170.968 251.638 169.928 248.903 164.977C252.146 167.836 253.612 171.902 253.006 176.439C251.126 178.061 248.592 177.901 245.827 176.693C246.851 176.382 248.698 175.616 247.879 175.072C247.056 174.523 244.8 175.219 243.776 175.637C242.535 174.908 241.27 174.015 240.012 173.02C241.04 172.791 242.953 172.062 242.408 170.968C241.859 169.871 238.759 170.317 237.277 170.678C233.915 167.606 230.823 164.084 228.73 161.394Z" fill="#384B6C"/>
<path d="M242.055 186.691H267.358L263.509 202.74C263.361 203.354 262.809 203.788 262.178 203.788H247.239C246.604 203.788 246.056 203.354 245.908 202.74L242.055 186.691Z" fill="#253036"/>
<path d="M240.115 181.991C240.062 181.585 240.381 181.225 240.795 181.225H268.65C269.059 181.225 269.379 181.585 269.329 181.991L268.814 186.094C268.773 186.438 268.482 186.692 268.138 186.692H241.307C240.959 186.692 240.668 186.438 240.627 186.094L240.115 181.991Z" fill="#253036"/>
<path d="M272.559 243.499H280.978L283.386 291.329H277.37L272.559 243.499Z" fill="#D0D8E7"/>
<path d="M173.31 243.497H164.89L162.482 291.328H168.498L173.31 243.497Z" fill="#253036"/>
<path d="M155.229 206.528C155.229 205.016 156.453 203.792 157.964 203.792H287.856C289.367 203.792 290.591 205.016 290.591 206.528V241.667C290.591 243.178 289.367 244.403 287.856 244.403H157.964C156.453 244.403 155.229 243.178 155.229 241.667V206.528Z" fill="#A7B8D2"/>
<path fill-rule="evenodd" clip-rule="evenodd" d="M282.679 208.989H164.024V239.206H282.679V208.989ZM163.34 208.305V239.89H283.363V208.305H163.34Z" fill="#F2F2F2"/>
<path d="M140.021 234.088H152.499L159.985 289.614H151.873L140.021 234.088Z" fill="#253036"/>
<path d="M105.133 234.088H117.611L120.104 289.614H111.996L105.133 234.088Z" fill="#D0D8E7"/>
<path d="M91.962 234.088H79.4843L76.9863 289.614H85.0987L91.962 234.088Z" fill="#D0D8E7"/>
<path d="M53.9245 234.088H41.4467L33.9609 289.614H42.0692L53.9245 234.088Z" fill="#D0D8E7"/>
<path d="M174.035 172.947H126.93C122.667 173.672 114.018 176.94 113.518 184.176C113.019 191.412 113.309 206.74 113.518 213.497H164.367V187.296C164.367 177.935 169.67 172.947 174.035 172.947Z" fill="#A7B8D2"/>
<path d="M186.481 218.493V179.188C186.481 175.744 183.688 172.951 180.24 172.951H174.003C169.638 172.951 164.331 177.939 164.331 187.301V213.501H94.1452V185.638C94.1452 184.667 94.092 183.689 93.8667 182.743C91.7291 173.709 83.2154 172.014 70.75 172.014V220.991C70.75 230.037 75.6764 235.463 87.9043 237.211H167.762C178.098 237.211 186.481 228.829 186.481 218.493Z" fill="#A7B8D2"/>
<path fill-rule="evenodd" clip-rule="evenodd" d="M70.4668 171.667H70.8108C77.0476 171.667 82.3507 172.088 86.368 173.669C90.418 175.258 93.1658 178.026 94.2633 182.662C94.4926 183.645 94.5459 184.652 94.5459 185.635V213.158H164.052V187.297C164.052 177.834 169.433 172.604 174.064 172.604H180.301C183.937 172.604 186.882 175.549 186.882 179.185V218.49C186.882 229.018 178.348 237.548 167.823 237.548H87.9405L87.9159 237.544C81.7692 236.668 77.3957 234.854 74.5619 232.077C71.7199 229.292 70.4668 225.574 70.4668 220.988V171.667ZM71.1507 172.354V220.988C71.1507 225.443 72.3628 228.965 75.041 231.59C77.7274 234.223 81.9248 235.996 87.9897 236.864H167.823C177.971 236.864 186.198 228.637 186.198 218.49V179.185C186.198 175.929 183.561 173.288 180.301 173.288H174.064C169.961 173.288 164.736 178.038 164.736 187.297V213.842H93.862V185.635C93.862 184.672 93.8088 183.727 93.5958 182.822C92.5557 178.419 89.9799 175.823 86.1182 174.308C82.3016 172.805 77.2319 172.367 71.1507 172.354Z" fill="#253036"/>
<path d="M8.39869 205.076C8.39869 228.471 26.1795 237.206 38.0348 237.206H87.9457C75.7178 235.458 70.7914 230.032 70.7914 220.986V172.008H25.5571C15.5733 160.28 11.4168 122.2 10.5814 104.628C-7.28138 108.563 1.50257 147.184 7.83357 166.849C8.20213 167.995 8.39869 169.191 8.39869 170.399V205.076Z" fill="#A7B8D2"/>
<path d="M126.885 172.946L116.041 117.724C114.551 110.115 107.88 104.628 100.124 104.628H10.5273C11.3627 122.2 15.5193 160.28 25.5031 172.008H70.7374C83.2028 172.008 91.7165 173.704 93.8541 182.738C94.0793 183.684 94.1326 184.662 94.1326 185.633V213.496H113.474C113.265 206.739 112.974 191.411 113.474 184.175C113.973 176.939 122.622 173.671 126.885 172.946Z" fill="#384B6C"/>
<path d="M180.699 268.169C181.359 265.74 173.255 255.286 173.07 255.024L183.099 248C183.283 248.263 189.831 257.055 194.635 256.051C193.98 261.858 183.918 266.961 180.699 268.169Z" fill="#FCBFBC"/>
<path d="M187.213 254.724C185.71 256.788 187.098 257.337 186.406 260.158C185.088 265.506 179.269 260.596 178.2 263.954C177.532 266.051 181.734 272.271 184.232 275.13C190.17 272.611 201.079 266.977 208.155 262.582C210.281 261.264 212.852 259.798 213.196 257.324C213.708 253.639 205.231 253.794 199.965 254.511C198.945 254.433 197.946 254.331 197.021 254.224L196.759 254.196C196.136 254.122 195.526 254.04 194.928 253.958C194.015 253.827 193.139 253.7 192.316 253.61C190.014 253.36 188.155 253.426 187.213 254.724Z" fill="#A7B8D2"/>
<path fill-rule="evenodd" clip-rule="evenodd" d="M189.339 253.927C188.524 254.062 187.918 254.374 187.512 254.926C187.156 255.418 186.984 255.799 186.906 256.126C186.828 256.458 186.837 256.765 186.869 257.126C186.878 257.224 186.89 257.322 186.902 257.424C186.98 258.108 187.078 258.956 186.763 260.242C186.415 261.655 185.747 262.449 184.883 262.846C184.048 263.231 183.085 263.215 182.209 263.145C181.988 263.129 181.791 263.108 181.595 263.088C181.37 263.068 181.149 263.047 180.919 263.031C180.51 263.002 180.141 262.994 179.818 263.039C179.498 263.08 179.24 263.17 179.035 263.321C178.839 263.469 178.667 263.698 178.552 264.059C178.495 264.239 178.302 264.341 178.122 264.28C177.942 264.222 177.844 264.034 177.901 263.854C178.053 263.375 178.298 263.022 178.626 262.773C178.954 262.531 179.334 262.412 179.728 262.359C180.121 262.306 180.547 262.318 180.968 262.347C181.189 262.363 181.435 262.388 181.681 262.412C181.882 262.429 182.078 262.449 182.262 262.461C183.135 262.531 183.937 262.531 184.601 262.228C185.231 261.937 185.788 261.339 186.095 260.078C186.382 258.919 186.3 258.178 186.222 257.506C186.21 257.4 186.198 257.298 186.19 257.191C186.153 256.806 186.136 256.409 186.243 255.971C186.345 255.528 186.566 255.066 186.959 254.525C187.5 253.78 188.294 253.407 189.224 253.252C190.141 253.096 191.222 253.145 192.377 253.272C193.077 253.346 193.815 253.452 194.572 253.559C194.716 253.579 194.855 253.6 194.998 253.62C195.596 253.702 196.206 253.784 196.82 253.858L197.087 253.886C198 253.989 198.978 254.095 199.978 254.169C202.619 253.813 206.071 253.596 208.811 253.931C210.187 254.099 211.419 254.406 212.288 254.939C212.726 255.205 213.086 255.537 213.315 255.95C213.545 256.368 213.635 256.843 213.561 257.371C213.532 257.56 213.36 257.691 213.176 257.662C212.988 257.637 212.857 257.465 212.881 257.277C212.939 256.884 212.869 256.56 212.717 256.282C212.558 255.999 212.3 255.746 211.931 255.52C211.19 255.07 210.072 254.771 208.729 254.607C206.096 254.288 202.75 254.492 200.146 254.836C199.683 255.295 199.036 256.016 198.52 256.769C198.245 257.166 198.012 257.568 197.865 257.936C197.713 258.313 197.656 258.624 197.693 258.858C197.725 259.046 197.594 259.222 197.41 259.251C197.222 259.28 197.05 259.153 197.017 258.964C196.956 258.555 197.058 258.108 197.23 257.682C197.406 257.248 197.664 256.806 197.955 256.384C198.352 255.799 198.823 255.242 199.236 254.795C198.553 254.734 197.885 254.664 197.25 254.595C197.144 254.787 196.996 255.004 196.845 255.221C196.792 255.295 196.738 255.373 196.681 255.447C196.493 255.717 196.292 256.003 196.1 256.307C195.85 256.696 195.625 257.097 195.481 257.49C195.334 257.883 195.272 258.248 195.326 258.575C195.354 258.759 195.227 258.936 195.039 258.964C194.855 258.993 194.679 258.866 194.65 258.682C194.572 258.198 194.67 257.707 194.838 257.252C195.01 256.794 195.26 256.347 195.522 255.938C195.723 255.619 195.94 255.316 196.132 255.045C196.182 254.972 196.235 254.898 196.284 254.828C196.366 254.709 196.44 254.603 196.501 254.509C196.026 254.451 195.555 254.386 195.092 254.325C195.064 254.357 195.031 254.39 194.998 254.427C194.953 254.472 194.904 254.525 194.855 254.578L194.834 254.599C194.777 254.66 194.711 254.73 194.646 254.8C194.38 255.09 194.056 255.447 193.753 255.84C193.45 256.233 193.172 256.651 192.987 257.06C192.799 257.474 192.721 257.842 192.77 258.153C192.799 258.338 192.672 258.514 192.484 258.542C192.299 258.575 192.123 258.448 192.095 258.26C192.017 257.76 192.148 257.248 192.365 256.777C192.582 256.302 192.893 255.836 193.213 255.422C193.536 255.004 193.872 254.632 194.146 254.337C194.187 254.292 194.228 254.247 194.265 254.206C193.651 254.12 193.061 254.038 192.496 253.972C192.484 253.989 192.471 254.005 192.455 254.021C192.218 254.329 191.788 254.877 191.37 255.524C191.104 255.938 190.85 256.384 190.67 256.806C190.485 257.236 190.391 257.613 190.403 257.908C190.412 258.096 190.268 258.256 190.076 258.264C189.887 258.272 189.728 258.125 189.72 257.936C189.699 257.49 189.842 257.003 190.043 256.536C190.244 256.065 190.518 255.586 190.797 255.152C191.112 254.664 191.444 254.214 191.693 253.89C190.801 253.817 190.01 253.813 189.339 253.927ZM182.729 270.451C182.655 270.279 182.733 270.078 182.905 270C186.325 268.494 191.415 266.102 196.378 263.481C201.35 260.856 206.169 258.018 209.069 255.619C209.216 255.5 209.429 255.52 209.552 255.664C209.671 255.811 209.65 256.028 209.507 256.147C206.546 258.592 201.673 261.458 196.698 264.087C191.718 266.712 186.611 269.116 183.18 270.627C183.008 270.705 182.807 270.627 182.729 270.451Z" fill="#253036"/>
<path d="M148.138 277.746C149.481 275.616 144.784 263.253 144.686 262.946L156.328 259.162C156.43 259.469 160.12 269.789 165.009 270.231C162.683 275.596 151.569 277.533 148.138 277.746Z" fill="#FCBFBC"/>
<path d="M158.328 266.795C156.289 268.331 157.456 269.264 155.97 271.758C153.144 276.488 149.02 270.088 147.014 272.991C145.765 274.797 147.96 281.971 149.512 285.44C155.925 284.768 168.009 282.569 176.06 280.436C178.476 279.793 181.367 279.146 182.42 276.877C183.984 273.507 175.831 271.177 170.585 270.321C169.635 269.952 168.714 269.559 167.858 269.187L167.612 269.08C167.039 268.83 166.478 268.572 165.933 268.318C165.098 267.929 164.295 267.549 163.537 267.225C161.408 266.312 159.61 265.833 158.328 266.795Z" fill="#A7B8D2"/>
<path fill-rule="evenodd" clip-rule="evenodd" d="M160.567 266.645C159.748 266.543 159.076 266.658 158.528 267.071C158.044 267.436 157.77 267.747 157.598 268.042C157.426 268.337 157.344 268.632 157.27 268.988C157.254 269.082 157.234 269.18 157.217 269.283C157.09 269.958 156.935 270.798 156.255 271.932C155.51 273.185 154.641 273.75 153.699 273.877C152.79 274 151.873 273.701 151.054 273.378C150.849 273.3 150.665 273.222 150.485 273.148C150.272 273.058 150.071 272.976 149.854 272.89C149.473 272.743 149.121 272.628 148.802 272.575C148.478 272.526 148.208 272.534 147.97 272.62C147.733 272.706 147.504 272.87 147.291 273.185C147.184 273.341 146.967 273.378 146.812 273.271C146.66 273.165 146.619 272.952 146.726 272.796C147.012 272.383 147.348 272.116 147.737 271.977C148.118 271.838 148.519 271.838 148.912 271.904C149.301 271.969 149.707 272.1 150.1 272.256C150.309 272.334 150.538 272.428 150.763 272.522C150.948 272.6 151.132 272.673 151.304 272.743C152.119 273.067 152.889 273.296 153.609 273.198C154.297 273.107 155.002 272.698 155.669 271.584C156.283 270.556 156.419 269.823 156.541 269.16C156.562 269.053 156.582 268.951 156.603 268.853C156.677 268.468 156.779 268.087 157.008 267.698C157.238 267.305 157.582 266.928 158.118 266.527C158.851 265.974 159.723 265.847 160.653 265.97C161.578 266.089 162.598 266.453 163.667 266.912C164.31 267.186 164.986 267.501 165.678 267.825C165.809 267.886 165.94 267.948 166.071 268.009C166.615 268.263 167.176 268.521 167.746 268.771L167.987 268.877C168.831 269.242 169.74 269.627 170.67 269.991C173.303 270.425 176.665 271.224 179.191 272.346C180.453 272.907 181.542 273.566 182.218 274.328C182.558 274.709 182.803 275.135 182.906 275.593C183.004 276.06 182.947 276.539 182.721 277.022C182.644 277.194 182.439 277.272 182.271 277.19C182.099 277.112 182.025 276.908 182.103 276.736C182.271 276.375 182.304 276.048 182.234 275.737C182.168 275.421 181.992 275.102 181.706 274.778C181.128 274.127 180.146 273.517 178.913 272.968C176.485 271.891 173.229 271.109 170.637 270.679C170.059 270.982 169.228 271.482 168.515 272.051C168.135 272.354 167.799 272.665 167.549 272.976C167.291 273.292 167.148 273.57 167.115 273.808C167.09 273.996 166.918 274.123 166.73 274.098C166.542 274.074 166.415 273.898 166.439 273.714C166.497 273.3 166.726 272.903 167.017 272.546C167.312 272.186 167.688 271.834 168.09 271.514C168.642 271.076 169.253 270.679 169.777 270.372C169.142 270.114 168.524 269.852 167.938 269.598C167.778 269.754 167.574 269.917 167.365 270.081C167.295 270.139 167.221 270.192 167.148 270.253C166.886 270.45 166.611 270.667 166.337 270.9C165.985 271.199 165.653 271.519 165.399 271.85C165.145 272.186 164.981 272.518 164.932 272.841C164.908 273.03 164.736 273.161 164.547 273.132C164.359 273.107 164.232 272.935 164.257 272.747C164.326 272.264 164.56 271.822 164.854 271.437C165.153 271.048 165.526 270.695 165.891 270.38C166.177 270.134 166.472 269.905 166.734 269.704C166.808 269.647 166.877 269.594 166.943 269.541C167.058 269.451 167.16 269.373 167.246 269.299C166.808 269.102 166.378 268.906 165.952 268.709C165.915 268.73 165.874 268.754 165.833 268.779C165.776 268.812 165.714 268.849 165.649 268.885L165.628 268.898C165.555 268.943 165.473 268.988 165.387 269.037C165.047 269.234 164.633 269.483 164.232 269.77C163.827 270.057 163.438 270.376 163.139 270.712C162.84 271.052 162.655 271.383 162.61 271.695C162.586 271.879 162.414 272.01 162.225 271.985C162.037 271.957 161.91 271.785 161.935 271.596C162.004 271.097 162.283 270.646 162.627 270.257C162.975 269.868 163.409 269.516 163.835 269.209C164.265 268.906 164.699 268.648 165.043 268.443C165.096 268.415 165.149 268.386 165.198 268.357C164.637 268.095 164.093 267.841 163.573 267.616C163.556 267.628 163.54 267.641 163.519 267.653C163.2 267.874 162.631 268.275 162.045 268.771C161.669 269.09 161.296 269.438 160.997 269.79C160.698 270.147 160.497 270.478 160.424 270.765C160.374 270.949 160.19 271.06 160.006 271.011C159.822 270.966 159.715 270.777 159.76 270.597C159.871 270.163 160.149 269.737 160.477 269.348C160.809 268.959 161.21 268.582 161.603 268.247C162.045 267.874 162.496 267.542 162.827 267.305C161.996 266.973 161.243 266.736 160.567 266.645ZM149.416 280.52C149.396 280.331 149.527 280.163 149.715 280.139C153.425 279.701 158.994 278.898 164.506 277.841C170.027 276.785 175.469 275.483 178.942 274.037C179.118 273.963 179.318 274.045 179.388 274.221C179.462 274.393 179.38 274.594 179.204 274.668C175.661 276.142 170.158 277.456 164.633 278.513C159.105 279.574 153.519 280.376 149.797 280.819C149.608 280.843 149.441 280.708 149.416 280.52Z" fill="#253036"/>
<path d="M94.0044 212.802C84.1885 208.502 83.652 192.838 85.9535 186.691C95.6711 189.894 117.408 195.14 126.609 190.533C137.855 189.894 161.115 190.074 164.182 195.909C167.245 201.745 180.026 234.69 186.033 250.431C183.605 253.503 178.183 259.658 172.356 257.815C155.795 227.507 153.072 224.608 150.967 207.937C149.493 208.162 147.507 208.137 145.566 208.006C150.312 226.438 157.171 258.523 158.338 262.602C154.575 264.993 149.104 266.705 145.344 267.045C132.691 236.713 131.356 237.085 127.903 214.047C120.618 216.606 103.816 217.106 94.0044 212.802Z" fill="#253036"/>
<path fill-rule="evenodd" clip-rule="evenodd" d="M129.986 193.148C124.388 193.57 118.106 195.023 114.032 196.236C113.852 196.289 113.659 196.186 113.606 196.006C113.553 195.822 113.655 195.634 113.835 195.58C117.938 194.36 124.269 192.894 129.933 192.464C132.763 192.251 135.445 192.296 137.607 192.771C139.757 193.242 141.473 194.159 142.23 195.761C143.078 197.558 144.385 202.075 145.891 207.919C145.937 208.103 145.826 208.291 145.646 208.337C145.462 208.386 145.273 208.275 145.228 208.091C143.717 202.218 142.427 197.775 141.612 196.051C140.99 194.737 139.536 193.893 137.46 193.439C135.392 192.984 132.783 192.935 129.986 193.148Z" fill="#F2F2F2"/>
<path d="M136.783 173.02L130.972 157.291C127.963 156.468 123.79 159.457 122.082 161.05C123.904 167.32 128.237 180.473 130.972 182.934C132.909 180.543 136.783 175.207 136.783 173.02Z" fill="#FCBFBC"/>
<path d="M103.277 123.254C108.65 121.174 108.896 111.792 108.347 107.361C109.101 109.249 114.121 118.393 121.5 118.52C121.533 119.671 121.726 121.796 122.221 123.405C122.557 124.495 122.864 125.719 122.336 126.726C118.736 133.569 108.347 127.472 103.277 123.254Z" fill="#FCBFBC"/>
<path d="M110.784 100.244C119.539 99.2816 122.418 92.9547 122.815 89.6704C124.785 90.2273 128.843 92.3527 129.281 96.4068C129.826 101.477 132.021 116.546 123.524 118.328C122.823 118.475 122.135 118.537 121.468 118.524C114.089 118.397 109.072 109.253 108.319 107.365C103.933 105.31 103.523 100.653 105.165 99.0072C106.48 97.6927 109.461 99.2816 110.784 100.244Z" fill="#FCBFBC"/>
<path fill-rule="evenodd" clip-rule="evenodd" d="M106.405 100.805C106.471 100.629 106.671 100.538 106.847 100.608C107.294 100.78 107.957 101.145 108.526 101.689C109.1 102.234 109.603 102.979 109.669 103.917C109.681 104.105 109.538 104.269 109.349 104.281C109.161 104.294 108.997 104.15 108.985 103.962C108.936 103.258 108.555 102.66 108.055 102.185C107.556 101.71 106.974 101.39 106.597 101.247C106.421 101.177 106.335 100.981 106.405 100.805ZM108.24 107.05C108.416 106.98 108.612 107.062 108.682 107.238C109.046 108.147 110.471 110.87 112.711 113.377C114.96 115.887 117.978 118.119 121.524 118.184C121.712 118.184 121.864 118.34 121.86 118.532C121.856 118.721 121.7 118.868 121.512 118.868C117.679 118.798 114.497 116.395 112.204 113.831C109.906 111.263 108.44 108.471 108.051 107.492C107.978 107.316 108.064 107.119 108.24 107.05Z" fill="#253036"/>
<path d="M110.851 100.239C119.606 99.2763 122.485 92.9494 122.882 89.6651C124.852 90.2221 128.91 92.3474 129.349 96.4015C129.893 101.471 132.088 116.541 123.591 118.323C122.891 118.47 122.203 118.531 121.539 118.519C121.572 119.686 121.769 121.865 122.285 123.486C126.478 125.489 130.471 129.736 132.043 132.094C132.76 133.167 132.686 136.611 133.73 139.162L138.46 132.041C140.586 127.819 138.444 124.109 135.786 120.788C133.046 117.36 135.647 115.169 136.884 111.332C138.116 107.499 135.512 104.346 133.73 101.881C131.949 99.4155 132.498 96.4015 131.949 89.4153C131.511 83.8255 122.817 81.3316 118.525 80.7829C113.636 80.2792 103.287 81.6592 100.986 91.1967C99.2047 99.0019 101.973 99.7104 96.0556 101.606C88.795 103.937 96.0556 110.1 91.2602 113.662C88.4756 115.947 84.573 121.938 91.2602 127.639L103.316 123.253C108.685 121.173 108.935 111.791 108.386 107.36C104 105.304 103.591 100.648 105.233 99.0019C106.551 97.6874 109.528 99.2763 110.851 100.239Z" fill="#253036"/>
<path fill-rule="evenodd" clip-rule="evenodd" d="M117.284 99.8951C116.707 100.776 116.338 102.008 116.338 103.388C116.338 104.768 116.707 106.001 117.284 106.881C117.866 107.762 118.627 108.253 119.422 108.253C120.212 108.253 120.978 107.762 121.555 106.881C122.133 106.001 122.501 104.768 122.501 103.388C122.501 102.008 122.133 100.776 121.555 99.8951C120.978 99.0146 120.212 98.5232 119.422 98.5232C118.627 98.5232 117.866 99.0146 117.284 99.8951ZM116.711 99.5183C117.374 98.515 118.32 97.8394 119.422 97.8394C120.519 97.8394 121.469 98.515 122.129 99.5183C122.718 100.415 123.095 101.599 123.173 102.901C123.39 102.835 123.64 102.782 123.894 102.758C124.147 102.733 124.434 102.737 124.709 102.815C124.774 101.685 125.093 100.653 125.593 99.8705C126.15 98.9942 126.961 98.3881 127.915 98.3881C128.865 98.3881 129.68 98.9942 130.237 99.8705C130.798 100.751 131.134 101.947 131.134 103.253C131.134 104.555 130.798 105.751 130.237 106.631C129.68 107.508 128.865 108.114 127.915 108.114C126.981 108.114 126.179 107.532 125.622 106.681C125.089 105.862 124.749 104.764 124.7 103.556C124.532 103.446 124.279 103.409 123.959 103.437C123.681 103.466 123.402 103.54 123.185 103.622C123.144 105.026 122.755 106.304 122.129 107.258C121.469 108.261 120.519 108.937 119.422 108.937C118.32 108.937 117.374 108.261 116.711 107.258C116.052 106.251 115.654 104.883 115.654 103.388C115.654 101.893 116.052 100.526 116.711 99.5183ZM126.17 100.239C125.687 100.993 125.38 102.057 125.38 103.253C125.38 103.294 125.38 103.339 125.38 103.384C125.401 104.543 125.716 105.575 126.195 106.304C126.674 107.037 127.288 107.43 127.915 107.43C128.55 107.43 129.176 107.025 129.659 106.263C130.143 105.509 130.45 104.445 130.45 103.253C130.45 102.057 130.143 100.993 129.659 100.239C129.176 99.4774 128.55 99.072 127.915 99.072C127.276 99.072 126.65 99.4774 126.17 100.239Z" fill="#253036"/>
<path d="M122.072 104.076C122.072 104.756 121.707 105.309 121.253 105.309C120.798 105.309 120.43 104.756 120.43 104.076C120.43 103.396 120.798 102.843 121.253 102.843C121.707 102.843 122.072 103.396 122.072 104.076Z" fill="#253036"/>
<path d="M129.476 104.348C129.476 105.028 129.108 105.58 128.653 105.58C128.198 105.58 127.834 105.028 127.834 104.348C127.834 103.664 128.198 103.115 128.653 103.115C129.108 103.115 129.476 103.664 129.476 104.348Z" fill="#253036"/>
<path fill-rule="evenodd" clip-rule="evenodd" d="M116.282 101.266L110.803 100.578L110.885 99.9019L116.368 100.586L116.282 101.266Z" fill="#253036"/>
<path d="M103.238 123.437C119.377 134.379 122.731 127.998 122.387 123.437C125.581 124.579 132.37 128.842 134.013 136.774C135.655 144.706 135.38 154.555 134.013 160.71C132.182 161.992 130.331 162.45 126.551 161.582C122.17 171.89 126.322 187.787 125.466 192.164C110.965 199.826 92.6399 193.647 85.8011 189.089C85.8011 176.664 87.1443 168.315 88.4138 161.742C87.4924 161.664 86.6202 161.537 85.8011 161.394C85.1173 156.037 84.159 147.442 85.8011 136.774C87.4433 126.107 92.9798 126.516 103.238 123.437Z" fill="#384B6C"/>
<path fill-rule="evenodd" clip-rule="evenodd" d="M103.591 123.337C103.648 123.521 103.546 123.709 103.362 123.763C101.764 124.242 100.27 124.643 98.8938 125.007C98.0625 125.229 97.2762 125.437 96.535 125.646C94.553 126.207 92.8822 126.768 91.4817 127.555C90.0894 128.337 88.9714 129.344 88.0951 130.798C87.2146 132.256 86.5717 134.185 86.1622 136.822C84.5323 147.444 85.4824 155.999 86.1663 161.347C86.1908 161.536 86.0557 161.708 85.8714 161.728C85.683 161.753 85.5111 161.622 85.4865 161.433C84.8026 156.069 83.8403 147.436 85.4865 136.719C85.9042 134.025 86.5676 132.006 87.5095 130.446C88.4513 128.877 89.6676 127.792 91.1459 126.961C92.6201 126.13 94.3605 125.552 96.3507 124.987C97.1124 124.774 97.9069 124.561 98.7423 124.34C100.106 123.975 101.572 123.586 103.165 123.107C103.349 123.054 103.538 123.156 103.591 123.337ZM88.5046 161.396C88.6888 161.433 88.8117 161.613 88.7748 161.798C87.5095 168.358 86.1663 176.687 86.1663 189.087C86.1663 189.276 86.0148 189.427 85.8264 189.427C85.638 189.427 85.4824 189.276 85.4824 189.087C85.4824 176.63 86.8297 168.26 88.1032 161.667C88.1401 161.482 88.3203 161.359 88.5046 161.396Z" fill="#253036"/>
<path fill-rule="evenodd" clip-rule="evenodd" d="M122.066 123.318C122.128 123.142 122.324 123.048 122.5 123.113C125.756 124.276 132.672 128.609 134.347 136.701C134.384 136.885 134.265 137.065 134.081 137.106C133.897 137.143 133.717 137.024 133.676 136.84C132.07 129.067 125.399 124.874 122.271 123.756C122.095 123.695 122.001 123.498 122.066 123.318ZM128.708 132.712C128.872 132.618 129.081 132.671 129.179 132.835C130.916 135.787 132.476 140.571 133 145.153C133.258 147.446 133.262 149.711 132.889 151.685C132.517 153.654 131.763 155.366 130.477 156.513C125.645 160.849 124.695 168.364 124.867 175.571C124.941 178.819 125.248 181.976 125.51 184.711C125.539 184.998 125.563 185.281 125.592 185.559C125.731 187.017 125.846 188.34 125.899 189.462C125.948 190.584 125.936 191.53 125.801 192.226C125.764 192.414 125.584 192.533 125.399 192.496C125.211 192.463 125.092 192.283 125.129 192.095C125.248 191.485 125.264 190.604 125.215 189.494C125.166 188.389 125.047 187.082 124.908 185.625C124.884 185.346 124.855 185.064 124.83 184.777C124.564 182.041 124.261 178.864 124.183 175.588C124.011 168.376 124.941 160.563 130.023 156.005C131.153 154.993 131.862 153.441 132.218 151.558C132.574 149.674 132.574 147.483 132.32 145.231C131.804 140.726 130.269 136.041 128.59 133.183C128.491 133.019 128.549 132.81 128.708 132.712ZM97.0247 138.486C97.209 138.453 97.3891 138.576 97.4219 138.76C97.8396 141.123 98.3924 143.81 98.9289 146.435C99.1951 147.729 99.4572 149.006 99.7029 150.227C100.067 152.069 100.387 153.769 100.6 155.169C100.809 156.554 100.915 157.684 100.841 158.347L100.825 158.499L100.702 158.589C94.8502 162.766 89.6617 162.418 85.7386 161.726C85.5544 161.693 85.4315 161.517 85.4643 161.328C85.497 161.144 85.6731 161.017 85.8615 161.05C89.6617 161.722 94.5881 162.057 100.174 158.126C100.211 157.536 100.116 156.554 99.924 155.272C99.7152 153.892 99.3957 152.201 99.0313 150.358C98.7897 149.15 98.5276 147.876 98.2614 146.586C97.7249 143.953 97.168 141.254 96.7462 138.879C96.7135 138.695 96.8363 138.519 97.0247 138.486Z" fill="#253036"/>
<path d="M88.4776 173.7C89.5014 175.752 109.334 189.425 117.201 191.137C121.304 189.085 123.765 194.282 126.775 193.189C129.85 192.071 127.913 186.804 127.459 185.666C126.636 184.572 121.304 183.274 118.908 185.666C105.575 177.803 106.938 173.356 97.7079 169.253C97.7079 167.967 97.45 163.417 97.106 160.309C93.2648 162.037 89.8085 161.976 86.9297 161.562C87.0607 164.953 87.1181 170.981 88.4776 173.7Z" fill="#FCBFBC"/>
<path d="M134.555 157.975H182.939L173.614 193.533H125.227L134.555 157.975Z" fill="#253036"/>
<path d="M93.6973 188.875H126.425V193.535H98.3616C95.7858 193.535 93.6973 191.45 93.6973 188.875Z" fill="#253036"/>
<path d="M290.65 62.9128C290.65 97.6596 262.484 125.83 227.737 125.83C192.99 125.83 164.82 97.6596 164.82 62.9128C164.82 28.166 192.99 0 227.737 0C262.484 0 290.65 28.166 290.65 62.9128Z" fill="#D0D8E7"/>
<path d="M247.892 45.813C253.592 47.5247 265.603 51.9679 266.696 58.8067C267.794 65.6455 268.977 83.0864 269.432 90.949C268.924 92.2553 266.946 94.3766 264.104 96.9319L266.672 112.321C255.955 120.778 242.425 125.827 227.719 125.827C226.573 125.827 225.438 125.798 224.308 125.737L224.984 90.949C223.71 88.3281 222.85 84.8514 222.289 81.0348C222.387 81.7187 212.33 88.5575 212.33 89.5812C207.952 89.5812 204.353 86.3912 203.1 84.7941C205.95 78.4139 212.674 64.0033 216.777 57.4389C221.904 49.2324 231.479 49.2324 231.823 48.5485L232.269 48.1021L232.343 49.3757C236.638 55.4733 243.788 51.9679 247.892 45.813Z" fill="#384B6C"/>
<path fill-rule="evenodd" clip-rule="evenodd" d="M251.626 75.7828C251.724 69.3166 252.068 62.097 252.355 57.4204L253.035 57.4614C252.752 62.1338 252.408 69.3412 252.31 75.791C252.261 79.0179 252.269 82.0482 252.38 84.4766C252.433 85.6888 252.511 86.7494 252.617 87.6012C252.724 88.4652 252.859 89.0877 253.01 89.4521L253.129 89.7388L252.855 89.8862C248.108 92.4293 245.144 94.9682 241.917 98.3671C240.643 99.7062 239.337 101.172 237.858 102.831C237.453 103.285 237.035 103.752 236.601 104.235C234.591 106.484 232.256 109.051 229.349 112.049L228.857 111.57C231.757 108.584 234.083 106.021 236.093 103.781C236.523 103.302 236.941 102.831 237.342 102.38C238.821 100.722 240.139 99.2435 241.421 97.8962C244.628 94.5178 247.597 91.9624 252.273 89.4235C252.134 88.9812 252.027 88.3874 251.937 87.6872C251.831 86.8067 251.749 85.7297 251.696 84.5053C251.585 82.0605 251.577 79.0138 251.626 75.7828ZM264.349 97.1878C256.458 104.276 241.266 115.37 233.055 120.98L232.67 120.415C240.872 114.809 256.036 103.736 263.891 96.68L264.349 97.1878Z" fill="#253036"/>
<path d="M224.749 39.4576C221.563 34.8179 218.012 23.2452 218.201 17.3933C218.811 15.9232 240.67 11.5333 244.213 21.2959C245.904 25.9602 244.86 29.4411 243.156 31.7548C243.647 34.5558 246.461 41.5625 247.894 45.8419C244.397 52.5537 236.469 55.2687 232.329 49.3309L232.324 49.2408C232.226 46.2841 232.124 43.1841 231.702 41.7468C229.126 42.5044 226.518 42.0375 224.749 39.4576Z" fill="#FCBFBC"/>
<path fill-rule="evenodd" clip-rule="evenodd" d="M239.568 34.561C239.74 34.6388 239.818 34.8394 239.74 35.0114C238.327 38.1728 235.1 41.1131 231.783 42.0918C231.603 42.1451 231.415 42.0427 231.361 41.8625C231.304 41.6823 231.41 41.4899 231.591 41.4366C234.703 40.5193 237.778 37.7224 239.113 34.733C239.191 34.561 239.396 34.4832 239.568 34.561Z" fill="#253036"/>
<path d="M213.8 10.8411C214.639 22.8807 226.327 17.5366 234.75 16.1852C235.225 16.1115 235.623 16.5497 235.553 17.0247C235.279 18.9085 235.017 23.1591 237.379 26.7137C237.691 24.7439 238.891 21.3082 241.184 23.3025C244.054 25.7964 242.818 30.5999 238.825 31.3288C238.96 33.2658 239.734 34.1217 239.783 34.8342C254.149 25.5425 250.91 5.36602 242.445 6.41027C236.995 -0.846217 229.718 5.50935 225.246 5.82467C215.34 2.22509 213.485 6.36931 213.8 10.8411Z" fill="#253036"/>
<path d="M239.964 73.8525H176.892C175.209 73.8525 173.927 75.3595 174.193 77.0221L178.125 101.642C186.483 112.326 198.211 120.238 211.712 123.776H247.069C248.752 123.776 250.038 122.269 249.772 120.61L242.667 76.1581C242.454 74.8313 241.312 73.8525 239.964 73.8525Z" fill="#253036"/>
<path d="M228.73 26.8832C228.73 27.5752 229.103 28.1363 229.566 28.1363C230.029 28.1363 230.401 27.5752 230.401 26.8832C230.401 26.1911 230.029 25.626 229.566 25.626C229.103 25.626 228.73 26.1911 228.73 26.8832Z" fill="#253036"/>
<path d="M220.9 27.245C220.9 27.9371 221.273 28.4981 221.736 28.4981C222.199 28.4981 222.571 27.9371 222.571 27.245C222.571 26.5529 222.199 25.9878 221.736 25.9878C221.273 25.9878 220.9 26.5529 220.9 27.245Z" fill="#253036"/>
<path fill-rule="evenodd" clip-rule="evenodd" d="M225.555 34.68C225.411 34.8029 225.395 35.0199 225.518 35.1633C226.099 35.843 226.824 36.0601 227.545 36.0028C228.245 35.9454 228.933 35.6301 229.507 35.2615C229.662 35.1592 229.711 34.9462 229.609 34.7865C229.502 34.6268 229.294 34.5818 229.134 34.6841C228.61 35.024 228.032 35.2779 227.488 35.323C226.963 35.3639 226.464 35.2124 226.034 34.7169C225.911 34.5736 225.694 34.5572 225.555 34.68Z" fill="#253036"/>
<path fill-rule="evenodd" clip-rule="evenodd" d="M230.131 22.0576C228.677 22.1558 227.489 23.7079 227.625 25.6571C227.76 27.6064 229.152 28.9782 230.61 28.88C232.068 28.7776 233.251 27.2256 233.116 25.2763C232.977 23.327 231.589 21.9552 230.131 22.0576ZM226.933 25.2149C226.994 23.2206 228.28 21.5006 230.086 21.3737C231.933 21.2426 233.476 22.852 233.763 24.8873L237.834 24.6006L237.883 25.2845L233.808 25.5711C233.808 27.6269 232.506 29.4328 230.655 29.5597C228.771 29.6908 227.207 28.02 226.965 25.9315C226.572 25.8046 226.277 25.8455 226.064 25.9315C225.864 26.0134 225.72 26.1445 225.643 26.255C225.741 28.4049 224.414 30.3378 222.493 30.473C220.54 30.6122 218.935 28.8144 218.779 26.6195C218.628 24.4245 219.971 22.422 221.92 22.2869C223.661 22.164 225.127 23.5768 225.536 25.4401C225.618 25.3869 225.708 25.3377 225.81 25.2968C226.122 25.1698 226.498 25.1248 226.933 25.2149ZM221.969 22.9708C220.511 23.0731 219.328 24.6252 219.463 26.5744C219.598 28.5237 220.991 29.8915 222.448 29.7932C223.902 29.6908 225.09 28.1388 224.955 26.1895C224.815 24.2402 223.427 22.8684 221.969 22.9708Z" fill="#253036"/>
<path fill-rule="evenodd" clip-rule="evenodd" d="M126.489 112.651C126.596 112.806 126.55 113.019 126.395 113.122C125.826 113.502 125.162 113.695 124.54 113.695C123.917 113.695 123.311 113.502 122.885 113.081C122.754 112.946 122.754 112.733 122.885 112.597C123.021 112.462 123.238 112.462 123.369 112.597C123.631 112.86 124.048 113.011 124.54 113.011C125.027 113.011 125.559 112.86 126.014 112.552C126.174 112.45 126.387 112.491 126.489 112.651Z" fill="#253036"/>
</svg>
