<svg width="130" height="83" viewBox="0 0 130 83" fill="none" xmlns="http://www.w3.org/2000/svg">
<path d="M50.8852 16.8753C52.3211 16.8753 53.4852 15.752 53.4852 14.3663C53.4852 12.9807 52.3211 11.8574 50.8852 11.8574C49.4492 11.8574 48.2852 12.9807 48.2852 14.3663C48.2852 15.752 49.4492 16.8753 50.8852 16.8753Z" fill="url(#paint0_linear_1469_1882)"/>
<path d="M53.8481 34.9346C53.458 33.9578 53.2101 32.8996 53.1047 31.8155C53.086 29.7872 53.4322 27.2931 53.7791 24.8792C53.8736 24.1508 53.9861 23.4345 54.0689 22.731C54.2082 21.6938 53.9006 20.6362 53.2264 19.8409C52.5402 19.0457 51.5594 18.5922 50.5293 18.6017C49.4933 18.6113 48.5211 19.0826 47.8556 19.8902C47.1962 20.6978 46.9083 21.761 47.0548 22.7954C47.1625 23.4973 47.2763 24.2115 47.3842 24.938C47.7756 27.3451 48.1797 29.8323 48.1982 31.8236C48.1192 32.9465 47.8848 34.0091 47.5128 34.9866C46.4083 37.9069 44.3113 39.7389 42.5469 40.8279L58.9091 40.6775C57.1368 39.6272 55.0004 37.8341 53.8481 34.9346Z" fill="#F8F3E3"/>
<path d="M31.6949 16.6738H34.9374C37.1437 16.6738 38.5032 17.0518 39.0157 17.8077C39.2609 18.1634 39.4503 18.508 39.584 18.8415C39.74 19.1749 39.8403 19.6974 39.8849 20.4088C39.9963 21.6983 40.052 23.1323 40.052 24.7107C40.052 26.2892 40.0409 27.4342 40.0186 28.1456C39.9963 28.8348 39.9183 29.5462 39.7846 30.2799C39.6732 30.9913 39.5172 31.5138 39.3166 31.8473C39.116 32.1585 38.8152 32.4475 38.414 32.7143C38.0129 32.9811 37.5449 33.159 37.01 33.2479C36.4752 33.3146 35.7843 33.3479 34.9374 33.3479H31.6949V30.8468H33.5C34.0795 30.8468 34.4472 30.769 34.6032 30.6134C34.7815 30.4578 34.8706 30.2132 34.8706 29.8797V20.1754C34.8706 19.8197 34.7815 19.564 34.6032 19.4084C34.4472 19.2528 34.0795 19.1749 33.5 19.1749H31.6949V16.6738ZM30.692 40.7846H28.6529C27.6723 40.7846 26.9257 40.54 26.4132 40.0509C25.9229 39.5841 25.6777 38.9727 25.6777 38.2168V19.2416C25.6777 18.4857 25.9229 17.8744 26.4132 17.4075C26.9257 16.9184 27.6723 16.6738 28.6529 16.6738H30.692V40.7846Z" fill="#F8F3E3"/>
<path d="M69.4457 16.6738H74.1257C76.5548 16.6738 77.7694 17.8632 77.7694 20.2421V33.3479H73.9586C73.602 33.3479 73.3123 33.2257 73.0894 32.9811C72.8666 32.7366 72.7551 32.4142 72.7551 32.014V20.1754C72.7551 19.8197 72.666 19.564 72.4877 19.4084C72.3317 19.2528 71.964 19.1749 71.3846 19.1749H69.4457V16.6738ZM63.5957 16.6738H65.6348C66.6154 16.6738 67.3508 16.9184 67.8411 17.4075C68.3537 17.8744 68.61 18.4857 68.61 19.2416V33.3479H64.7991C64.4426 33.3479 64.1528 33.2257 63.93 32.9811C63.7071 32.7366 63.5957 32.4142 63.5957 32.014V16.6738ZM89.7064 19.1749H87.9012C87.3218 19.1749 86.943 19.2528 86.7647 19.4084C86.6087 19.564 86.5307 19.8197 86.5307 20.1754V29.8797C86.5307 30.2132 86.6087 30.4578 86.7647 30.6134C86.943 30.769 87.3218 30.8468 87.9012 30.8468H89.7064V33.3479H86.4638C85.617 33.3479 84.9261 33.3146 84.3912 33.2479C83.8564 33.159 83.3884 32.9811 82.9872 32.7143C82.5861 32.4475 82.2852 32.1585 82.0847 31.8473C81.8841 31.5138 81.717 30.9913 81.5832 30.2799C81.4272 29.2795 81.3492 27.8788 81.3492 26.078C81.3492 24.2772 81.3604 23.0656 81.3827 22.4431C81.405 21.7983 81.4384 21.1203 81.483 20.4088C81.5498 19.6974 81.6501 19.1749 81.7838 18.8415C81.9398 18.508 82.1292 18.1745 82.3521 17.841C82.5972 17.4853 82.9092 17.2407 83.2881 17.1074C84.1127 16.8183 85.1712 16.6738 86.4638 16.6738H89.7064V19.1749ZM86.865 35.4822V37.2497C86.865 37.6276 86.9207 37.8833 87.0321 38.0167C87.1435 38.1723 87.4332 38.2501 87.9012 38.2501H89.7064V40.7512H85.4944C83.0652 40.7512 81.8507 39.5618 81.8507 37.183V36.1825C81.8507 35.8491 81.8841 35.6601 81.951 35.6156C82.0401 35.5712 82.0958 35.5378 82.1181 35.5156C82.1404 35.5156 82.1961 35.5045 82.2852 35.4822C82.3967 35.4822 82.4747 35.4822 82.5192 35.4822C83.9678 35.4822 85.4164 35.4822 86.865 35.4822ZM90.7092 16.6738H92.7484C93.729 16.6738 94.4644 16.9184 94.9547 17.4075C95.4672 17.8744 95.7235 18.4857 95.7235 19.2416V38.2168C95.7235 38.9727 95.4672 39.5841 94.9547 40.0509C94.4644 40.54 93.729 40.7846 92.7484 40.7846H90.7092V16.6738Z" fill="#F8F3E3"/>
<path d="M85.6586 45.2051H92.9386C96.7175 45.2051 98.6066 47.0553 98.6066 50.7557V71.1426H92.6786C92.1237 71.1426 91.6735 70.9523 91.3266 70.572C90.9797 70.1916 90.8066 69.6901 90.8066 69.0676V50.652C90.8066 50.0986 90.6677 49.7009 90.3906 49.4588C90.1477 49.2167 89.5757 49.0957 88.6746 49.0957H85.6586V45.2051ZM76.5586 45.2051H79.7306C81.2557 45.2051 82.3997 45.5855 83.1626 46.3463C83.9597 47.0726 84.3586 48.0236 84.3586 49.1995V71.1426H78.4306C77.8757 71.1426 77.4255 70.9523 77.0786 70.572C76.7317 70.1916 76.5586 69.6901 76.5586 69.0676V45.2051ZM117.175 49.0957H114.367C113.466 49.0957 112.876 49.2167 112.599 49.4588C112.356 49.7009 112.235 50.0986 112.235 50.652V65.7476C112.235 66.2663 112.356 66.6467 112.599 66.8888C112.876 67.1309 113.466 67.252 114.367 67.252H117.175V71.1426H112.131C110.814 71.1426 109.739 71.0907 108.907 70.987C108.075 70.8486 107.347 70.572 106.723 70.157C106.099 69.742 105.631 69.2923 105.319 68.8082C105.007 68.2895 104.747 67.4767 104.539 66.3701C104.296 64.8138 104.175 62.6351 104.175 59.8338C104.175 57.0326 104.192 55.1478 104.227 54.1795C104.262 53.1766 104.314 52.1217 104.383 51.0151C104.487 49.9084 104.643 49.0957 104.851 48.577C105.094 48.0582 105.388 47.5395 105.735 47.0207C106.116 46.4673 106.602 46.087 107.191 45.8795C108.474 45.4298 110.12 45.2051 112.131 45.2051H117.175V49.0957ZM112.755 74.4626V77.212C112.755 77.7996 112.842 78.1976 113.015 78.4051C113.188 78.6474 113.639 78.7682 114.367 78.7682H117.175V82.6588H110.623C106.844 82.6588 104.955 80.8084 104.955 77.1082V75.552C104.955 75.0332 105.007 74.739 105.111 74.6701C105.25 74.6012 105.336 74.5493 105.371 74.5145C105.406 74.5145 105.492 74.4974 105.631 74.4626C105.804 74.4626 105.926 74.4626 105.995 74.4626C108.248 74.4626 110.502 74.4626 112.755 74.4626ZM118.735 45.2051H121.907C123.432 45.2051 124.576 45.5855 125.339 46.3463C126.136 47.0726 126.535 48.0236 126.535 49.1995V78.7163C126.535 79.8924 126.136 80.8432 125.339 81.5695C124.576 82.3305 123.432 82.7107 121.907 82.7107H118.735V45.2051Z" fill="#F8F3E3"/>
<path d="M12.3248 45.2051H17.3688C20.8008 45.2051 22.9155 45.793 23.7128 46.9688C24.0942 47.5222 24.3888 48.0582 24.5968 48.577C24.8395 49.0957 24.9955 49.9084 25.0648 51.0151C25.2382 53.0209 25.3248 55.2516 25.3248 57.707C25.3248 60.1623 25.3075 61.9434 25.2728 63.0501C25.2382 64.1222 25.1168 65.2288 24.9088 66.3701C24.7355 67.4767 24.4928 68.2895 24.1808 68.8082C23.8688 69.2923 23.4008 69.742 22.7768 70.157C22.1528 70.572 21.4248 70.8486 20.5928 70.987C19.7608 71.0907 18.6862 71.1426 17.3688 71.1426H12.3248V67.252H15.1328C16.0342 67.252 16.6062 67.1309 16.8488 66.8888C17.1262 66.6467 17.2648 66.2663 17.2648 65.7476V50.652C17.2648 50.0986 17.1262 49.7009 16.8488 49.4588C16.6062 49.2167 16.0342 49.0957 15.1328 49.0957H12.3248V45.2051ZM10.7648 82.7107H7.59284C6.06751 82.7107 4.90617 82.3305 4.10884 81.5695C3.34617 80.8432 2.96484 79.8924 2.96484 78.7163V49.1995C2.96484 48.0236 3.34617 47.0726 4.10884 46.3463C4.90617 45.5855 6.06751 45.2051 7.59284 45.2051H10.7648V82.7107Z" fill="#F8F3E3"/>
<path fill-rule="evenodd" clip-rule="evenodd" d="M38.511 45.2051C37.7056 45.7727 36.9928 46.3932 36.4005 47.0579C33.8005 50.0222 31.9434 55.2097 31.9434 59.6561C31.9434 69.6835 40.4862 78.1828 50.8861 77.8122C61.2861 77.4417 69.829 69.6835 69.829 59.6561C69.829 54.0981 67.6005 49.2811 64.6291 46.3168C64.2415 45.9301 63.7999 45.5585 63.3127 45.2051H38.511Z" fill="url(#paint1_linear_1469_1882)"/>
<defs>
<linearGradient id="paint0_linear_1469_1882" x1="50.8852" y1="11.8574" x2="50.8852" y2="16.8753" gradientUnits="userSpaceOnUse">
<stop stop-color="#DA6B75"/>
<stop offset="1" stop-color="#460006"/>
</linearGradient>
<linearGradient id="paint1_linear_1469_1882" x1="50.8861" y1="45.2051" x2="50.8861" y2="77.8241" gradientUnits="userSpaceOnUse">
<stop stop-color="#DA6B75"/>
<stop offset="1" stop-color="#460006"/>
</linearGradient>
</defs>
</svg>
